<?xml version="1.0" standalone="no"?>
<!DOCTYPE svg PUBLIC "-//W3C//DTD SVG 1.1//EN" "http://www.w3.org/Graphics/SVG/1.1/DTD/svg11.dtd" >
<svg xmlns="http://www.w3.org/2000/svg" xmlns:xlink="http://www.w3.org/1999/xlink" version="1.1">
<metadata></metadata>
<defs>
<font id="bosqueregular" horiz-adv-x="1636" >
<font-face units-per-em="2048" ascent="1536" descent="-512" />
<missing-glyph horiz-adv-x="512" />
<glyph horiz-adv-x="0" />
<glyph unicode="&#xd;" horiz-adv-x="512" />
<glyph horiz-adv-x="0" />
<glyph horiz-adv-x="0" />
<glyph unicode=" "  horiz-adv-x="512" />
<glyph unicode="&#x09;" horiz-adv-x="512" />
<glyph unicode="&#xa0;" horiz-adv-x="512" />
<glyph unicode="!" horiz-adv-x="808" d="M41 1724h727q-52 -5 -82 -10q-42 -6 -73 -20q-33 -14 -57 -40t-36 -69q-5 -19 -10 -81q-1 -14 -8 -146q-3 -63 -7 -190q-1 -23 -2.5 -65t-2.5 -76t-1 -65l-4 -202q-1 -37 -2.5 -96.5t-1.5 -77.5q0 -23 -1 -45.5t-2 -44.5t-1 -32q-1 -46 -4 -46q0 -30 -21 -47 q-22 -17 -48 -17q-25 0 -47 17q-21 17 -21 47q-3 0 -4 79l-5 200q-3 119 -6 266q-1 30 -9 273q-4 112 -11 226q-6 96 -12 123q-12 43 -36 69q-24 25 -56 40q-30 14 -73 20q-32 5 -83 10zM268 137q0 59 39 100q38 39 99 39q44 0 77 -24q32 -24 48 -61q16 -38 10 -76 q-6 -41 -39 -74t-73 -39q-42 -6 -76 8q-37 15 -60 47q-25 34 -25 80z" />
<glyph unicode="&#x22;" horiz-adv-x="798" d="M41 891q49 19 88 55q43 40 74 82q32 44 52 97q19 53 24 102q-60 -21 -108 -2q-47 18 -68 55q-21 38 -18 84q3 47 40 84q30 30 74 38q43 7 81 -11t65 -65q28 -48 28 -122q0 -75 -25 -141q-24 -64 -68 -115q-43 -50 -106 -87q-62 -36 -133 -54zM428 891q46 18 87 55 q44 40 74 82q31 44 52 97q20 51 25 102q-62 -21 -109 -2q-46 18 -68 55t-19 84t40 84q30 30 74 38q42 7 82 -11q37 -17 65 -65q27 -46 27 -122q0 -75 -25 -141q-24 -64 -68 -115q-42 -49 -105 -87q-60 -36 -132 -54z" />
<glyph unicode="#" horiz-adv-x="1099" d="M41 553l8 68h227l54 380h-228l11 68h227l70 502h71l-69 -502h358l72 502h73l-71 -502h215l-10 -68h-211l-60 -380h215l-8 -68h-215l-76 -533h-73l73 533h-354l-74 -533h-73l75 533h-227zM352 621h353l57 380h-361z" />
<glyph unicode="$" horiz-adv-x="1044" d="M41 31v452h2q23 -85 57 -171q32 -79 85 -150q50 -66 119 -107q70 -41 161 -41q15 0 29 2v676l-152 79q-73 36 -137 89q-62 52 -100 121q-37 68 -37 174q0 96 33 172q34 79 93 139q59 61 135 95q75 34 165 34v166h65v-170l37 -6q53 -11 103 -35q39 -18 85 -33 q38 -12 63 -5t36 53v-424q-11 37 -35 109q-18 56 -44 105q-26 51 -60 92q-36 44 -80 71q-47 30 -105 41v-601q79 -38 166 -85q78 -43 142 -102q63 -58 100 -136q37 -77 37 -186q0 -119 -58 -229q-57 -108 -162 -171q-52 -31 -107 -47q-56 -16 -118 -22v-166h-65v163 q-143 5 -267 60l-68 29q-23 10 -46 10q-51 0 -72 -45zM260 1393q-45 -125 18 -228q64 -104 207 -172l9 -4v572q-74 -5 -137 -44q-64 -40 -97 -124zM559 29q63 18 107 58q45 40 70 95q26 57 29 122q3 70 -17 136q-22 65 -54 106q-33 42 -90 81l-13.5 9t-16.5 10.5t-15 8.5 v-626z" />
<glyph unicode="%" horiz-adv-x="1337" d="M41 1106q0 70 30 131q30 62 79 108q48 45 111 72t130 27q63 0 126 -27q65 -28 110 -70q44 -41 76 -105q30 -60 30 -128t-27 -129q-25 -57 -75 -107q-44 -44 -111 -73q-63 -27 -137 -27q-66 0 -129 26q-62 26 -110 69t-75 104q-28 62 -28 129zM63 -135l1156 1565h77 l-1167 -1565h-66zM184 1108q0 -64 17 -121q17 -56 46 -97q31 -43 68 -66t84 -23q45 0 82 24t63 68q25 43 40 98q14 52 14 117q0 137 -58 225t-153 88q-35 0 -72 -21q-35 -20 -65 -62q-30 -43 -47 -98q-19 -62 -19 -132zM770 377q0 49 22 95q21 44 56 77q34 33 81 51t93 18 q48 0 91 -18q45 -19 79 -51t55 -75q21 -42 21 -91q0 -50 -20 -95q-21 -46 -53 -77q-35 -34 -80 -51q-49 -19 -99 -19q-46 0 -94 19q-43 17 -79 50q-33 30 -53 75t-20 92zM872 379q0 -44 13 -88q12 -41 33 -71q20 -29 49 -47q27 -17 61 -17t59 17q29 19 46 48q17 28 28 71 q10 39 10 85q0 102 -43 164q-44 63 -108 63q-27 0 -52 -15q-26 -15 -47 -45q-22 -31 -35 -72q-14 -44 -14 -93z" />
<glyph unicode="&#x26;" horiz-adv-x="1574" d="M41 383q0 121 49 218t141 175q42 36 77 58l91 61q-47 64 -84 127q-36 62 -62 132q-23 65 -25 134q-1 67 32 135q45 91 122 132q76 40 179 40q111 0 184 -43q76 -45 109 -107q35 -66 31 -139q-5 -78 -47 -139q-22 -34 -55 -62q-36 -31 -65 -51l-68 -46l-64 -43l377 -527 l50 94q18 35 46 97q18 41 34 91q13 42 13 81q0 110 -158 131h443q-45 -4 -81 -17q-33 -11 -67 -41q-25 -23 -45 -54q-17 -26 -46 -75q-23 -39 -45 -86l-42 -88q-26 -54 -84 -157l68 -83q46 -54 81 -91q41 -43 88 -83q46 -40 82 -59q77 -43 139 -20q61 23 95 108 q-34 -136 -129 -180q-94 -43 -223 2q-88 29 -162 94q-64 56 -137 144q-58 -83 -105 -133q-50 -53 -131 -90q-95 -41 -201 -39q-106 1 -196 48q-91 47 -150 134t-59 217zM230 387q13 -89 56 -164t110 -120q68 -46 161 -46q56 0 101 17t79 45q39 32 66 66q31 39 59 83 l-438 596q-83 -50 -129 -128q-49 -83 -63 -169q-15 -92 -2 -180zM354 1388q0 -51 21 -102q11 -27 35 -69q24 -41 49 -79q28 -43 55 -79l51 -70q49 41 75 70q29 32 52 80q30 66 37 139q8 77 -10 140q-18 64 -65 108q-46 43 -124 43q-56 0 -96 -26q-38 -25 -59 -65t-21 -90z " />
<glyph unicode="'" horiz-adv-x="247" d="M41 1491h166l-21 -309h-116z" />
<glyph unicode="(" horiz-adv-x="544" d="M42 689q2 80 11 144q11 72 33 150q28 105 64 189q41 95 84 165q46 74 106 152q55 70 129 151h35q-64 -117 -98 -191q-42 -91 -71 -174q-30 -87 -48 -180q-20 -103 -31 -208q-6 -60 -9 -112q-3 -49 -3 -98q0 -54 4 -99q5 -53 12 -113q12 -108 32 -200q20 -91 48 -172 q29 -84 69 -167q45 -94 95 -184h-35q-144 155 -237 308q-96 159 -148 347q-22 78 -33 150q-10 72 -9 142z" />
<glyph unicode=")" horiz-adv-x="544" d="M41 -258q53 98 97 190q41 87 72 176q30 88 48 181q20 106 31 207q6 62 9 111q3 50 3 99q0 54 -4 99q-1 6 -4.5 48t-5.5 67q-11 104 -32 198q-20 92 -49 171q-32 89 -70 167q-45 94 -95 184h35q140 -151 237 -308q98 -158 148 -347q19 -70 32 -149q11 -66 11 -143 q0 -76 -11 -142q-14 -84 -32 -152q-29 -103 -66 -188t-84 -165t-105 -153q-59 -74 -130 -151h-35z" />
<glyph unicode="*" horiz-adv-x="647" d="M41 1260q0 28 14 52q15 25 41 25q19 0 38 -11q33 -19 46 -27l49 -31q21 -15 50 -29q22 -10 22 11q0 22 -9 58q-8 31 -21 74q-11 36 -11 62q0 24 21 36q19 11 45 11q50 0 57 -27t0 -64q-6 -31 -24 -79q-15 -39 -13 -68q1 -12 5.5 -16.5t12.5 -1.5q18 7 37 20q35 21 55 37 q25 20 52 33q24 12 45 12t37 -22q16 -26 16 -55q0 -36 -37 -45q-35 -8 -82 -10q-36 -1 -81 -3q-37 -1 -39 -20q0 -10 24 -31l54 -44q40 -32 56 -47q25 -24 25 -40q0 -18 -11 -34q-12 -18 -28 -28q-15 -9 -34 -11q-17 -1 -35 18q-14 17 -25 45q-1 2 -23 63q-15 40 -23 57 q-13 25 -23 25t-22 -25q-8 -17 -23 -57l-24 -64q-12 -32 -24 -44q-18 -19 -34 -18q-20 2 -36 11t-29 27q-11 15 -11 33t24 42q19 19 55 46l55 43q26 21 26 31t-19 15q-23 6 -43 7l-48 3q-16 1 -32 1q-98 0 -98 54z" />
<glyph unicode="+" horiz-adv-x="1073" d="M41 745v70h461v438h69v-438h461v-70h-461v-436h-69v436h-461z" />
<glyph unicode="," horiz-adv-x="411" d="M41 -322q47 18 88 56q44 41 73 82q31 44 52 97q20 51 25 101q-62 -21 -109 -2q-45 18 -68 56q-22 37 -19 84t40 84q31 30 74 38q44 8 82 -10t65 -64q27 -47 27 -122q0 -76 -25 -143q-23 -63 -68 -115q-42 -49 -105 -87t-132 -55z" />
<glyph unicode="-" horiz-adv-x="587" d="M41 674v74h506v-74h-506z" />
<glyph unicode="." horiz-adv-x="356" d="M41 137q0 60 39 99q40 40 98 40q56 0 96 -40q41 -41 41 -99q0 -55 -41 -96t-96 -41q-57 0 -98 41q-39 39 -39 96z" />
<glyph unicode="/" horiz-adv-x="851" d="M41 -170l696 1899h74l-698 -1899h-72z" />
<glyph unicode="0" horiz-adv-x="1050" d="M41 790q0 94 19 183q19 90 59 194q27 70 63 137q40 73 90 134q48 58 115 101q62 40 137 40q78 0 140 -40q65 -42 114 -101q50 -61 90 -134t64 -137q76 -195 76 -377q0 -183 -76 -378q-24 -64 -64 -137q-41 -75 -91 -134q-51 -60 -115 -101q-62 -40 -138 -40 q-75 0 -137 40q-67 43 -115 101q-50 61 -90 134q-36 67 -63 137q-40 104 -59 193q-19 91 -19 185zM229 710q11 -226 78 -429q12 -40 32 -85q20 -44 47 -82q28 -38 63 -63q35 -24 79 -24q51 0 95 41q39 36 69 88q36 67 58 143q27 91 40 168q16 91 23 171q8 91 8 153 q0 70 -10 170q-11 109 -34 213q-26 116 -63 203q-42 98 -100 143q-44 34 -90 34q-60 0 -103 -46q-47 -50 -76 -111q-32 -67 -51 -136q-18 -66 -30 -118q-45 -209 -35 -433z" />
<glyph unicode="1" horiz-adv-x="733" d="M41 0q37 1 73 9q37 8 64 22q30 16 50 40q22 27 32 68q7 25 8 56q2 44 2 77q0 190 2 554t2 552h-180q99 6 176 43q80 39 162 97h27v-1239q0 -69 9 -119q9 -47 35 -83q25 -34 70 -52q48 -19 119 -25h-651z" />
<glyph unicode="2" horiz-adv-x="1052" d="M41 20v23q91 81 200 193q101 104 203 226q109 130 182 238q85 125 130 230q31 71 47 140q16 67 14 139q-1 68 -26 132q-24 62 -76 119q-19 18 -50 43q-25 20 -57 33q-39 14 -76 16q-70 5 -117 -19q-50 -25 -76 -63q-28 -41 -37 -88q-9 -52 2 -93q13 -46 40 -79 q29 -35 76 -47v-4q-12 0 -39.5 1.5t-43.5 2.5q-39 1 -82 15q-38 12 -64 40q-24 26 -29 82q-5 61 25 108q30 48 83 89q62 47 128 65q62 17 151 17q98 0 185 -32q85 -31 147 -89q62 -57 96 -139q35 -84 35 -180q0 -110 -44 -210q-43 -98 -114 -189q-65 -83 -156 -168 q-77 -72 -170 -148l-157 -134l-107 -91h631l70 18l-47 -197h-877z" />
<glyph unicode="3" horiz-adv-x="1036" d="M43 327q4 57 32 106q27 48 77 78t112 30l4 -21q-51 -40 -72 -86q-22 -47 -22 -110q0 -72 29 -130t74 -96q47 -39 106 -57q61 -18 121 -14q65 5 119 33q57 30 100 85q69 91 86 205q16 113 -8 217q-24 103 -84 172q-61 70 -144 70l-41 -8v53q77 0 150 70q48 48 71 112 q23 65 25 136q2 74 -17 140q-20 72 -56 122q-37 51 -91 87q-50 33 -120 33q-98 0 -151 -54q-51 -53 -62 -124q-10 -68 20 -132q30 -63 98 -81v-4q-12 0 -39.5 1.5t-43.5 2.5q-39 1 -82 15q-36 12 -63 40q-26 27 -30 82q-4 59 25 108t84 89q62 46 134 65q73 19 153 16 q76 -3 151 -29q74 -25 132 -72q57 -45 94 -115q36 -68 36 -156q0 -72 -21 -127q-20 -52 -61 -98q-36 -40 -92 -77q-49 -32 -117 -58q336 -92 336 -381q0 -138 -67 -238t-172 -157q-107 -58 -232 -70q-127 -12 -248 27q-87 28 -140 78q-52 49 -75 107q-22 57 -18 115z" />
<glyph unicode="4" horiz-adv-x="1036" d="M41 344v25l702 1151h50v-1137q22 0 62 2q28 1 54 11q24 9 44 29t30 56l12 88v-409q-5 66 -15 98q-12 37 -34 55q-24 19 -59 25q-37 6 -94 6q0 -57 -1 -90q-1 -49 6 -95q8 -48 28 -84q22 -39 65 -57q16 -5 37 -9t53 -9h-563q64 6 100 19q37 13 56 40q20 28 26 70 q6 43 6 107v108h-565zM96 383h510v829z" />
<glyph unicode="5" horiz-adv-x="1024" d="M42 364q3 65 31 123q27 56 77 91q49 34 112 34l6 -22q-53 -50 -74 -101q-22 -53 -22 -122q0 -124 61 -207q62 -85 149 -115q88 -30 181 -4q94 27 160 123q23 30 39 69q14 33 31 84q24 90 22 192q-1 98 -38 183q-36 85 -107 138q-73 55 -187 55q-91 0 -184 -44 q-92 -44 -160 -134h-37v827q27 -6 81 -12q87 -10 122 -12q67 -4 144 -9q50 -3 144 -5q69 -1 124 0q58 2 84 7q45 7 92 31q-21 -107 -81 -155t-181 -48h-82q-80 0 -126 1q-88 2 -134 4q-56 3 -105 12v-480q53 41 131 65q76 23 168 28q137 6 246 -48q106 -52 170 -145t79 -213 t-26 -246q-23 -73 -74 -132q-48 -55 -116 -97q-82 -54 -184 -73q-103 -19 -206 -4q-102 15 -185 71t-121 153q-27 68 -24 137z" />
<glyph unicode="6" horiz-adv-x="1038" d="M42 608q-3 120 16 233q19 115 57 214q40 102 93 190q59 98 132 168q77 74 169 120t202 46q38 0 89 -8q46 -7 89 -28q41 -20 68 -50q28 -31 28 -76q0 -36 -17 -56q-20 -23 -42 -27q-25 -5 -51 4q-28 9 -44 36q-14 21 -26 54q-10 28 -26 57q-15 27 -42 45t-75 18 q-146 0 -263 -186q-122 -195 -149 -465q109 87 221 111q116 24 244 -35q115 -51 184 -147q67 -92 88 -200q21 -107 -2 -219q-23 -111 -83 -202t-157 -148q-96 -57 -223 -57q-227 0 -360 188q-59 83 -88 195q-29 110 -32 225zM229 502q0 -212 78 -342q45 -72 102 -105 q55 -32 112 -29q58 3 110 39q54 37 92 101q39 65 61 152t27 179q5 93 -10 179q-16 92 -50 158q-36 69 -93 111t-136 42q-84 0 -140 -49q-54 -47 -90 -122q-32 -67 -48 -158q-15 -86 -15 -156z" />
<glyph unicode="7" horiz-adv-x="864" d="M41 1313v278h2q8 -41 28 -49q21 -8 72 -8l680 4l-549 -1393l-20 -52q-10 -24 -24 -46q-14 -21 -32 -34q-19 -13 -51 -13q-35 0 -66 23q-30 22 -30 61q0 28 19 64l34 67l564 1143h-67h-100h-118h-115q-40 0 -94 -2q-24 -1 -55 -4q-43 -7 -78 -39z" />
<glyph unicode="8" horiz-adv-x="1007" d="M42 399q-1 74 31 148q31 72 99 129q57 47 197 121q-127 63 -209 161t-82 238q0 94 36 166q37 73 95 120q61 49 135 72q80 25 155 25t155 -25q77 -24 137 -75q54 -45 82 -109q28 -63 29 -127t-23 -130q-24 -64 -74 -116q-45 -48 -172 -129q74 -41 129 -80q61 -43 106 -97 q44 -53 72 -121q27 -66 27 -152q0 -96 -34 -171q-36 -79 -93 -132q-59 -55 -142 -85q-82 -30 -178 -30q-116 0 -203 34q-90 35 -149 90q-62 58 -93 128q-32 72 -33 147zM203 377q0 -92 27 -158q26 -64 73 -109q45 -44 103 -65q56 -21 114 -19q62 2 110 21q52 21 89 59 q42 45 64 110q22 66 22 126q0 84 -31 152q-28 62 -84 116q-51 49 -125 91q-76 43 -153 75q-105 -80 -156 -174q-53 -97 -53 -225zM221 1272q0 -76 29 -137q28 -60 78 -105q50 -46 114 -79q55 -29 140 -60q77 61 113 145t36 185q0 110 -38 184t-94 111q-55 36 -123 38 t-123 -29q-56 -31 -94 -95t-38 -158z" />
<glyph unicode="9" horiz-adv-x="1038" d="M53 162q0 35 19 57q18 21 43 27t50 -4t42 -35q14 -20 26 -55q11 -32 26 -57q15 -26 41 -44t75 -18q148 0 264 188q119 193 149 463q-108 -87 -221 -112q-115 -26 -243 34q-117 52 -184 147q-66 93 -87 200t2 219q23 111 83 202t157 148q96 57 223 57q228 0 356 -188 q63 -87 91 -196q28 -107 31 -226q3 -120 -16 -233q-20 -119 -56 -214q-26 -70 -66 -142q-39 -70 -90 -135t-111 -117q-59 -52 -127 -85q-74 -35 -156 -42q-83 -8 -155 9q-72 16 -119 56q-47 39 -47 96zM224 1082q-3 -87 13 -177q15 -85 51 -154q36 -70 93 -110 q58 -41 135 -41q85 0 142 48q55 47 91 121q33 68 47 156q13 79 13 152q0 217 -78 342q-45 72 -98 103q-53 32 -113 30q-57 -2 -111 -36q-55 -35 -96 -103q-41 -67 -63 -153q-23 -88 -26 -178z" />
<glyph unicode=":" horiz-adv-x="358" d="M41 139q0 58 40 98q39 39 97 39q45 0 78 -24q32 -24 48 -61q15 -35 10 -76q-4 -40 -38 -74t-73 -38q-42 -5 -77 10q-36 15 -60 48q-25 34 -25 78zM41 852q0 57 40 97t97 40q45 0 78 -24q32 -24 48 -61q15 -35 10 -76q-4 -38 -38 -72q-33 -33 -73 -39q-41 -6 -77 9t-60 48 q-25 34 -25 78z" />
<glyph unicode=";" horiz-adv-x="413" d="M41 -324q45 21 87 57q44 38 74 82q31 45 52 97q20 49 25 102q-64 -21 -109 -3q-46 18 -68 55t-19 84q3 46 40 83q29 32 74 40q43 7 81 -11q39 -19 65 -64q28 -48 28 -122q0 -76 -25 -143q-24 -64 -68 -114q-42 -47 -105 -87q-61 -38 -132 -56zM96 852q0 57 40 97t97 40 q45 0 78 -24q32 -24 48 -61q16 -38 10 -76q-6 -39 -39 -72t-73 -39t-76 9t-60 48q-25 34 -25 78z" />
<glyph unicode="&#x3c;" horiz-adv-x="1042" d="M41 662v40l960 373v-239l-718 -209l718 -275v-90z" />
<glyph unicode="=" horiz-adv-x="1075" d="M41 512v70h993v-70h-993zM41 870v68h993v-68h-993z" />
<glyph unicode="&#x3e;" horiz-adv-x="1042" d="M41 340v90l719 275l-719 208v240l960 -373v-41z" />
<glyph unicode="?" horiz-adv-x="821" d="M41 1415q0 52 41 95t106 65q42 19 77 32q35 12 77 19q91 12 169 -8q82 -21 141 -67q63 -49 96 -116q34 -70 31 -159q-3 -87 -50 -192q-46 -102 -149 -216q-21 -24 -94 -95q-56 -54 -118 -123q-60 -66 -102 -127q-42 -62 -41 -105q0 -55 49 -111q-55 0 -88 42 q-32 41 -32 97q0 44 24 97q22 48 64 111q35 53 86 120l92 120l84 112q36 49 59 96q55 114 42 216t-66 168t-131 86t-152 -30q-27 -18 -36 -46q-10 -29 -14 -56q-6 -38 -9 -55q-4 -23 -23 -39q-18 -15 -42 -18q-22 -3 -44 5q-20 7 -34 29q-13 20 -13 53zM92 137q0 60 40 100 q39 39 97 39q45 0 79 -24q33 -23 49 -61t10 -76q-6 -41 -39 -74t-74 -39q-43 -6 -77 8q-37 15 -60 47q-25 34 -25 80z" />
<glyph unicode="@" horiz-adv-x="1669" d="M42 715q2 127 39 249q38 122 108 227q69 102 175 187q104 82 234 129q126 47 244 51q123 4 237 -24q113 -28 215 -89q100 -60 174 -149q75 -90 117 -201q43 -113 43 -247q0 -101 -25 -188q-25 -88 -75 -163q-50 -76 -121 -132q-76 -60 -164 -89q-39 -15 -100 -26 q-56 -10 -110 -4q-51 6 -89 35q-37 28 -37 94q0 17 5 49q3 21 16 68l-8 2q-29 -53 -60 -94q-33 -44 -72 -78q-41 -36 -85 -56t-97 -20q-104 0 -164 72q-59 71 -59 188q0 95 34 188q35 96 88 177q57 87 123 150q69 66 140 106q72 41 138 48q65 7 116 -28q39 -28 57 -80l15 -2 l32 98h129l-239 -776q-16 -49 13 -66q29 -18 75 -16q41 1 91 16q49 14 65 25q79 44 128 118t76 166t30 192q3 106 -17 198q-20 93 -62 181q-40 85 -100 145q-71 71 -160 110q-87 38 -180 49q-90 10 -182 -8q-91 -18 -168 -61q-169 -100 -265 -236t-132 -289 q-35 -149 -14 -307q21 -154 89 -289q67 -132 177 -233q108 -99 252 -143q141 -43 312 -16q169 27 359 149l20 -27q-55 -47 -118 -80q-65 -34 -137 -57q-73 -23 -143 -35q-72 -12 -140 -12q-103 0 -202 24q-95 23 -188 72q-87 46 -166 114q-78 67 -134 150q-79 114 -116 240 q-38 131 -37 254zM532 438q0 -76 35 -113t88 -26q54 11 117 68t123 165q26 49 50 108q26 65 48 130q21 64 37 133q14 62 14 115q0 49 -27 82t-75 33q-47 0 -95 -36q-47 -35 -93 -95q-44 -57 -85 -133q-43 -80 -71 -151q-29 -75 -48 -151q-18 -73 -18 -129z" />
<glyph unicode="A" d="M41 0q88 7 145 72t97 149q4 9 36 86l50 121l276 717l27 -62l-185 -475h375l17 -45h-408l-84 -215q-13 -32 -31 -86q-14 -43 -16 -87v-12q0 -37 11 -67q13 -36 52 -63t99 -33h-461zM678 1229l123 264l489 -1182q27 -63 69 -153q36 -76 85 -113q32 -24 67 -31q45 -9 84 -14 h-688q85 11 121 31q40 27 55 59q13 28 13 58q0 6 -1 12q-3 33 -19 74l-29 75l-58 146l-63 153z" />
<glyph unicode="B" horiz-adv-x="1458" d="M41 1489l891 2q88 0 155 -33q68 -33 113 -86t65 -121q14 -49 14 -98q0 -20 -2 -39q-8 -71 -44 -135q-38 -67 -105 -113q-16 -11 -50 -25l-70 -28q63 -10 126 -26q58 -15 105 -42q51 -30 85 -69q38 -44 65 -107q28 -67 28 -141q0 -24 -3 -49q-12 -101 -61 -184 q-50 -85 -135 -140t-192 -55l-983 -2q83 4 129 30q49 27 70 68q22 42 28 102q6 59 6 130v831q0 73 -6 133t-30 102q-23 41 -72 66q-47 24 -127 29zM522 307q0 -67 9 -116t36 -82q28 -34 75 -50t128 -16q120 0 202 38t126 97q44 58 59 133q8 41 8 82q0 32 -5 64 q-12 71 -42 133q-28 58 -76 98q-45 37 -108 56q-61 18 -131 24q-63 5 -123 5h-20q-48 -1 -138 -1v-465zM522 807h97q53 0 106 6q50 6 101 20t85 39q75 54 102 142q18 59 18 116q0 31 -5 61q-15 91 -71 161q-57 72 -148 94q-53 12 -134 12h-151v-651z" />
<glyph unicode="C" horiz-adv-x="1345" d="M41 717q0 86 15 173q15 86 48 166q32 78 81 148q50 71 116 123q100 78 230 121q129 43 260 43q99 0 171 -21q95 -28 125 -38q53 -18 89 -26q35 -8 53 19q7 7 18 35l2 -2v-428l-35 92q-19 51 -36 83q-20 39 -48 76q-32 42 -63 71q-59 55 -121 79q-59 23 -139 23 q-117 0 -198 -45q-79 -44 -148 -131q-87 -110 -128 -249q-40 -135 -40 -286q0 -128 30 -251q30 -125 94 -218t167 -151q102 -57 250 -57q106 0 202 35q98 36 158 120q59 83 88 234l23 -4q-17 -148 -79 -249q-64 -103 -196 -155q-65 -26 -128 -37q-69 -12 -140 -12 q-77 0 -142 11q-80 14 -135 32q-113 38 -193 102q-81 65 -139 155q-57 88 -84 196q-28 110 -28 223z" />
<glyph unicode="D" horiz-adv-x="1703" d="M41 1489h860q61 0 123 -5q45 -4 106 -18q56 -13 99 -34t98 -58q131 -90 209 -224q81 -139 109 -290q16 -87 16 -175q0 -66 -9 -132q-21 -152 -94 -277q-70 -120 -196 -200q-123 -78 -297 -78h-1022q80 5 127 29q48 25 71 67q22 40 30 102t8 132v831q0 59 -7 129 q-6 62 -29 103q-23 42 -72 68q-48 26 -130 30zM522 356q0 -82 6 -136q6 -53 41 -97q38 -47 100 -68q60 -20 133 -20q75 0 138 14q71 16 115 37q108 50 183 135q74 84 112 203q42 137 42 285v20q-3 156 -57 301q-53 141 -156 249q-103 107 -257 151q-66 18 -153 18 q-20 0 -40 -1q-120 -5 -207 -5v-1086z" />
<glyph unicode="E" horiz-adv-x="1415" d="M41 1489h178v3h1026v-374q-18 122 -83 208q-64 86 -189 114q-39 8 -97 12q-40 3 -121 5q-32 0 -63 0.5t-62 -0.5q-42 -1 -108 -1v-655h111q59 0 103 11q48 12 85 40t58 88l9 24q6 18 9 29v-518q-10 75 -30 131q-19 55 -54 91q-35 37 -90 53q-54 16 -135 16h-66v-313 q0 -30 2 -80q1 -37 6 -64q7 -75 37 -130q28 -51 74 -85q44 -32 108 -46q61 -13 138 -13t145 12q65 12 124 41q56 28 100 78q46 52 73 121q13 31 24 68q6 19 21 87v-442h-622l-709 -2q83 4 129 30q49 27 70 68q22 42 28 102q6 59 6 130v831q0 73 -6 133t-30 102 q-23 41 -72 66q-47 24 -127 29z" />
<glyph unicode="F" horiz-adv-x="1259" d="M41 1489h1178v-318q-28 85 -71 146q-41 59 -120 106q-69 39 -151 39h-177h-176v-651q109 0 193 15q83 15 145 75q41 39 59 86q17 44 25 107v-650h-4q-7 72 -20 119q-15 53 -42 93t-72 68t-112 40t-172 12v-448q0 -74 6 -132q6 -56 31 -102q23 -42 72 -67q48 -25 129 -29 h-705q82 5 136 41q55 37 73 121q13 62 13 168v831q0 11 -0.5 23.5t-1.5 27.5t-1 23q-2 37 -6 78q-10 94 -73 134q-61 39 -156 44z" />
<glyph unicode="G" horiz-adv-x="1566" d="M47 791q15 150 78 291q63 140 174 235q60 53 143 95q77 39 166 61q83 20 175 22h18q81 0 155 -16q74 -17 126 -42q55 -27 89 -39q38 -14 62 -3q25 11 43 63v-405q-28 83 -69 157t-93 129t-122 87t-156 32q-133 0 -221 -52t-162 -161q-82 -125 -118 -257 q-38 -137 -39 -271v-7q0 -129 34 -253q35 -125 98 -220q64 -96 154 -153t202 -57q69 0 128 22q62 23 105 65q44 43 69 101q26 61 26 131q0 105 -51 147t-148 48h613q-53 -6 -90 -17t-57 -31t-31 -57q-12 -38 -13 -90v-21q0 -40 3 -78q4 -43 20 -116q-18 28 -46 28 q-7 0 -15 -2q-36 -9 -72 -32q-109 -74 -251 -107q-101 -23 -208 -23q-40 0 -81 3q-145 12 -280 71q-134 59 -219 169q-83 105 -118 254q-25 107 -25 212q0 44 4 87z" />
<glyph unicode="H" horiz-adv-x="1847" d="M41 1489v2h719v-2q-80 -5 -127 -29q-49 -25 -72 -67q-25 -46 -31 -102q-6 -59 -6 -132v-362h801v362q0 77 -7 133q-7 59 -32 102q-23 41 -72 66q-47 24 -127 29v2h719v-2q-80 -5 -127 -29t-71 -66q-25 -43 -32 -101q-7 -55 -7 -132v-833q0 -75 7 -130q8 -60 31 -102 q24 -43 70 -67q47 -24 127 -29h-717q83 5 130 29t71 66q25 44 31 102q6 60 6 131v415h-801v-415q0 -71 6 -131q6 -58 31 -102q24 -42 71 -66q48 -25 126 -29h-707q79 5 137 38q60 35 78 118q13 60 13 172v833q0 71 -9 150q-7 65 -53 112q-35 38 -77 50q-40 11 -99 16z" />
<glyph unicode="I" horiz-adv-x="800" d="M41 1489v2h719v-2q-81 -4 -129 -29q-49 -25 -72 -67q-25 -46 -31 -102q-6 -59 -6 -130v-833q0 -72 6 -130q6 -56 31 -102q23 -42 72 -67q47 -24 127 -29h-707q79 5 136 38q58 34 79 118q2 10 8 70q5 47 5 102v833q0 71 -9 150q-7 65 -53 112q-35 38 -78 50q-41 11 -98 16 z" />
<glyph unicode="J" horiz-adv-x="1079" d="M44 -171q4 31 30 53q25 22 63 22q53 0 76 -35q22 -34 39 -77q18 -45 40 -77q24 -34 81 -34q60 0 98 38q39 39 57 99q15 45 21 133t6 217v999q0 69 -10 132q-11 68 -53 112q-63 67 -179 78v2h725v-2q-79 -5 -125 -27q-47 -23 -71 -63q-26 -43 -33 -99q-8 -61 -8 -133 v-1007q0 -86 -8 -163q-7 -69 -36 -130q-27 -57 -81 -102q-54 -44 -141 -74q-49 -17 -104 -26q-57 -9 -114 -9q-61 0 -111 11q-57 13 -95 38q-43 25 -57 58q-11 25 -11 50q0 8 1 16z" />
<glyph unicode="K" horiz-adv-x="1712" d="M41 0q80 5 142 37q63 33 81 119q12 56 12 172v833q0 88 -7 150q-8 66 -52 112q-35 38 -78 50q-41 11 -98 16v2h719v-2q-80 -5 -127 -29q-49 -25 -72 -66q-25 -43 -32 -101q-7 -55 -7 -132v-401q36 33 65 62l106 106l127 126l123 124l96 99q42 43 48 52q19 27 19 56 q0 10 -2 20q-8 41 -51 63q-28 15 -97 21v2h488v-2q-50 -5 -86 -19q-42 -17 -71 -37q-31 -22 -69 -58l-81 -77l-367 -352l586 -745q48 -61 106 -109q63 -52 121 -74q38 -12 88 -18v-2h-745v2q114 8 149 53q12 15 12 37q0 44 -47 117q-47 69 -96 132l-123 157l-124 153 l-101 125l-74 -72v-374q0 -74 6 -132q6 -57 31 -101q23 -41 72 -66q48 -25 129 -29v-2h-719v2z" />
<glyph unicode="L" horiz-adv-x="1406" d="M41 0q85 0 146 38q60 38 77 118q15 51 15 172v833q0 62 -7 130q-6 59 -30 102q-23 42 -72 67q-48 25 -129 29v2h719v-2q-80 -5 -127 -29q-48 -25 -72 -65q-25 -41 -32 -101q-7 -56 -7 -133v-651q0 -89 5 -192q4 -90 34 -152q24 -50 56 -75q35 -27 75 -42q35 -13 90 -18 q44 -4 103 -4q116 0 195 22q81 23 138 69t91 116t57 167v-403h-1325v2z" />
<glyph unicode="M" horiz-adv-x="2029" d="M41 0q80 5 127 29q49 25 72 66t31 101q8 62 8 132v833q0 62 -7 130q-6 61 -29 101q-24 41 -72 67t-130 30v2h500l479 -1184l496 1184h473v-2q-99 -4 -158 -46q-60 -42 -72 -145q-5 -29 -6 -62q-2 -46 -2 -75v-833q0 -78 9 -149q9 -70 55 -116q63 -61 174 -63v-2h-719v2 q81 4 129 29q47 24 71 66q25 44 31 101q6 58 6 132v1009l-571 -1339h-45l-565 1319v-989q0 -73 6 -133t30 -102q23 -39 72 -65q45 -23 127 -28v-2h-520v2z" />
<glyph unicode="N" horiz-adv-x="1716" d="M41 0q80 5 127 29q49 25 72 66t31 101q8 62 8 132v833q0 69 -8 133q-8 61 -31 102q-23 39 -72 65q-45 23 -127 28v2h455l895 -1147v817q0 64 -7 132q-6 59 -30 101q-23 41 -72 66q-47 24 -127 29v2h520v-2q-86 0 -146 -39q-61 -40 -79 -119q-12 -56 -12 -170v-1163h-70 l-1044 1313v-983q0 -77 7 -132q8 -60 31 -101t72 -66q47 -24 127 -29v-2h-520v2z" />
<glyph unicode="O" horiz-adv-x="1615" d="M41 735q0 125 39 238q40 114 108 205q69 92 167 161q101 72 212 111q123 43 242 43q23 0 47 -2q141 -10 269 -68t225 -155t156 -222q60 -127 67 -267q1 -18 1 -35q0 -126 -50 -252q-44 -111 -117 -201q-74 -90 -170 -155q-94 -63 -209 -100q-112 -36 -231 -36 q-157 0 -291 56q-140 59 -241 155q-105 100 -164 232q-60 133 -60 292zM293 721q0 -298 164 -510q72 -91 153 -133q82 -43 195 -43q115 0 197 42q83 42 155 134q69 86 106 186q36 99 52 211q8 60 8 121q0 49 -5 99q-12 113 -42 214q-18 57 -44 115q-26 57 -61 108 q-38 54 -77 92q-43 42 -95 66q-42 19 -91 29q-47 10 -101 10t-101 -10q-51 -11 -92 -29q-51 -24 -96 -65q-42 -39 -78 -91q-33 -47 -60 -108q-25 -55 -42 -115q-45 -147 -45 -323z" />
<glyph unicode="P" horiz-adv-x="1339" d="M41 0q83 5 144 38q63 34 81 120q13 60 13 172v831q0 13 -0.5 28t-1.5 33.5t-1 29.5q-1 45 -12 86q-10 40 -33 73q-22 32 -65 53q-44 16 -49 17q-33 9 -62 10h875q79 0 149 -31q65 -29 117 -84q48 -51 76 -125q26 -69 26 -151q0 -86 -27 -151q-26 -63 -77 -109 q-50 -46 -117 -71q-69 -26 -147 -32l-408 -2v-405q0 -77 7 -133q7 -59 32 -102q23 -41 72 -66q47 -24 127 -29v-2h-719v2zM522 770q76 0 112 -1h16q40 0 88 4q49 4 95 22q42 16 80 51q45 44 72 96t36 112q5 30 5 61q0 28 -4 56q-7 57 -31 113q-33 82 -99 120q-66 37 -155 48 l-215 2v-684z" />
<glyph unicode="Q" horiz-adv-x="1615" d="M41 733q0 126 39 237q40 114 108 204q69 92 167 161q101 72 212 111q123 43 242 43q24 0 47 -2q142 -10 268 -68q128 -59 225 -154q99 -97 156 -221q58 -126 67 -265q1 -20 1 -40q0 -123 -47 -247q-45 -111 -120 -201q-76 -91 -171 -155q-94 -63 -208 -100 q-111 -36 -228 -36q-154 0 -289 55q-138 56 -242 154q-105 99 -166 232q-61 132 -61 292zM287 -342q0 17 7 39q10 32 20 53q14 29 31 55q20 30 36 46q65 60 130 83q60 21 118 21h10q60 -1 126 -22l125 -39q57 -19 124 -37q48 -13 95 -13q14 0 28 1q61 5 123 39 q60 34 122 112q0 -17 -10 -46q-13 -38 -27 -63q-18 -33 -42 -63t-54 -49q-50 -34 -105 -49q-46 -13 -98 -13h-14q-55 1 -120 17q-67 16 -130 37q-21 7 -89 27q-47 14 -93 21q-29 5 -57 5q-18 0 -35 -2q-44 -4 -82 -27q-36 -22 -69 -55q-20 -20 -70 -78zM295 719 q0 -302 164 -510q69 -89 153 -132q85 -44 195 -44q112 0 194 43t154 133q68 85 107 186q38 100 52 211q8 60 8 122q0 49 -5 98q-10 110 -41 214q-18 62 -43 115q-28 59 -62 108q-38 55 -77 91q-44 41 -95 65q-43 19 -90 29t-101 10t-101 -10q-49 -10 -91 -29 q-54 -24 -96 -64q-44 -41 -78 -91q-31 -46 -61 -109q-25 -53 -43 -115q-23 -74 -33 -154q-10 -77 -10 -167z" />
<glyph unicode="R" horiz-adv-x="1531" d="M41 0q82 4 130 30q49 26 71 68t28 102q6 58 6 130v831q0 73 -6 133t-30 102q-23 41 -72 66q-47 24 -127 29h823q107 0 195 -31q85 -30 151 -129q46 -67 59 -144q6 -32 6 -64q0 -47 -13 -92q-21 -77 -73 -141q-53 -65 -140 -99q-21 -9 -58 -21q-32 -10 -74 -18 q48 -20 79 -42q27 -19 51 -50q16 -21 37 -64l42 -88l59 -121l63 -127q19 -36 63 -114q26 -46 53 -78q30 -36 55 -50q24 -13 72 -18v-2h-381q-16 34 -49 110l-57 130l-65 137q-40 80 -70 130q-39 64 -70 108q-35 49 -70 73q-47 35 -98 38t-111 3v-397q0 -77 7 -133 q7 -59 32 -102q23 -41 72 -66q48 -25 129 -29v-2h-719v2zM520 754h110q53 0 94 7q48 8 83 23q39 16 74 50q93 89 113 213q6 36 6 71q0 85 -35 164q-34 75 -78 112q-46 38 -102 53q-55 14 -122 16q-44 1 -143 1v-710z" />
<glyph unicode="S" horiz-adv-x="968" d="M41 47v418q23 -87 53 -158q33 -78 79 -139q45 -59 110 -98q62 -37 147 -37q65 0 116 22q50 21 88 61q35 36 55 89q20 52 20 110q0 105 -49 175q-48 69 -119 118q-69 47 -155 88t-155 88q-69 48 -119 119q-49 70 -49 180q0 85 32 160q31 73 86 129q54 56 126 87 q73 32 154 32q49 0 92 -13q39 -12 84 -29l71 -28q32 -12 56 -12q38 0 53 53v-395q-18 61 -44 133q-27 74 -65 127q-39 55 -98 94q-56 37 -139 37q-44 0 -85 -14q-44 -15 -80 -45q-34 -28 -58 -78q-23 -48 -23 -111q0 -86 60 -155q62 -71 166 -121l174 -84q90 -46 153 -99 q70 -59 109 -133q41 -77 41 -186q0 -90 -33 -170q-33 -79 -93 -139q-57 -57 -145 -93q-83 -34 -186 -34q-70 0 -133 14q-71 16 -127 41q-49 20 -63 27q-20 10 -44 10q-45 0 -63 -41z" />
<glyph unicode="T" horiz-adv-x="1603" d="M41 1073v418h1522v-418h-2q-27 133 -78 210q-52 78 -130 115q-80 38 -187 48q-103 10 -246 10v-1124q0 -77 7 -133q8 -61 31 -102t72 -66q47 -24 127 -29v-2h-721v2q81 4 129 29q49 25 72 66q25 44 31 102q6 60 6 133v1124q-30 0 -106 -2q-37 -1 -111 -7q-51 -4 -107 -14 q-50 -9 -88 -24q-97 -40 -146 -133t-71 -203h-4z" />
<glyph unicode="U" horiz-adv-x="1740" d="M41 1489v2h719v-2q-57 -5 -98 -16q-43 -12 -78 -50q-48 -52 -55 -121q-7 -66 -7 -167v-576q0 -119 7 -197q7 -82 53 -157q59 -93 139 -131q78 -37 197 -37q62 0 132 12t136 39q67 27 119 69q52 41 79 99q27 60 30 142q3 83 3 194v567q0 77 -7 132q-7 57 -32 102 q-23 42 -71 67q-47 24 -127 29v2h520v-2q-80 -5 -127 -29q-49 -25 -72 -66q-25 -43 -32 -102q-7 -56 -7 -133v-647q0 -66 -3 -118t-15 -96q-12 -43 -37 -82q-22 -34 -66 -75q-163 -141 -471 -141q-108 0 -208 18q-96 17 -180 60q-78 40 -131 109q-51 67 -66 171 q-6 51 -6 181v620q0 73 -9 152q-7 65 -53 112q-38 38 -78 50q-38 11 -98 16z" />
<glyph unicode="V" horiz-adv-x="1693" d="M41 1487v4h729v-4q-55 -6 -102 -20q-44 -14 -72 -56q-23 -38 -23 -75q0 -17 5 -34q20 -73 36 -116l328 -891l320 782q40 100 57 176q8 33 8 65q0 42 -14 79q-21 53 -59 71q-40 19 -93 19v4h492v-4q-99 -11 -153 -63t-99 -138l-82 -190l-455 -1096h-45l-440 1130 q-90 229 -139 285q-35 41 -87 56q-56 16 -112 16z" />
<glyph unicode="W" horiz-adv-x="2539" d="M41 1487v4h696v-4q-66 0 -112 -8q-41 -7 -70 -50q-18 -29 -18 -61t9 -67q8 -32 24 -68l30 -68l346 -841l238 725q31 90 44 164q4 21 4 42q0 49 -20 101q-28 76 -79 103q-53 28 -127 28v4h710v-4q-68 0 -118 -10q-53 -11 -87 -70q-20 -36 -19 -75q0 -12 1 -24 q7 -47 31 -120l272 -879l305 748q14 35 41 111q20 58 28 117q3 21 3 40q0 34 -9 64q-13 46 -57 73q-42 25 -120 25v4h512v-4q-41 -5 -62 -10q-27 -6 -48 -18q-26 -15 -40 -29q-19 -19 -37 -46q-26 -36 -62 -109q-26 -53 -77 -171l-457 -1104h-45l-395 1180l-399 -1180h-48 l-528 1274q-20 49 -46 98q-20 37 -49 63q-23 20 -67 34q-39 12 -98 18z" />
<glyph unicode="X" horiz-adv-x="1755" d="M41 0q27 5 58 14q19 6 48 21q24 13 44 30q5 4 22 18t27 23q42 38 117 123l143 167l143 175l119 148l-410 612q-38 56 -64 85q-25 27 -58 44q-32 16 -66 20q-75 9 -94 11v4h743v-4q-99 0 -143 -24q-43 -24 -43 -68q0 -37 24 -87q25 -52 68 -114l199 -289l71 88l91 114 l86 110q43 54 57 77q14 21 22 47t8 46q0 39 -32 67q-33 28 -134 33v4h517v-4q-71 0 -126 -26q-57 -27 -102 -69q-47 -44 -91 -103l-95 -122l-246 -303l387 -577q43 -61 84 -114q37 -48 85 -91q42 -38 96 -61q55 -24 118 -25h-786q46 6 70 11q38 8 65 22q30 16 47 37 q18 22 18 57q0 30 -20 64q-28 48 -43 71l-274 418l-269 -328q-38 -46 -80 -108q-36 -53 -36 -111q0 -36 13 -59q15 -26 37 -40q29 -18 53 -24q35 -9 62 -10h-530z" />
<glyph unicode="Y" horiz-adv-x="1675" d="M41 1491v4h735v-4q-34 -1 -67 -6q-34 -5 -59 -15q-27 -11 -41 -32q-15 -22 -15 -62q0 -32 18 -69q17 -35 41 -72l305 -479l291 454q31 51 40 100q3 19 3 36q0 29 -9 54q-15 39 -57 65q-43 26 -110 26v4h518v-4q-55 -6 -85 -17q-35 -12 -68 -44q-37 -36 -81 -92 q-45 -58 -89 -126l-258 -393q-25 -37 -36 -55q-13 -22 -21 -45t-9 -48q-2 -34 -2 -65q0 -58 -1 -101q-1 -33 -1 -66t1 -66q2 -86 4 -128q3 -61 9 -89q16 -71 71 -112q53 -39 130 -44h-696q81 4 129 29t71 67q25 46 31 102q6 58 6 132v221q0 67 -29 134q-29 66 -77 136 l-344 520q-27 42 -55 71q-26 27 -54 45t-62 25q-35 8 -77 9z" />
<glyph unicode="Z" horiz-adv-x="1417" d="M41 0v25l956 1431q-90 0 -145 1q-41 0 -82.5 0.5t-82.5 -0.5q-92 -2 -160 -7q-78 -6 -130 -18q-87 -23 -163 -75q-77 -53 -117 -128q-33 -55 -45 -135v398h1206v-26l-946 -1431h362q119 0 218 12t180 47q80 35 142 94q61 58 107 156q14 30 19 46q15 47 16 52v-442h-1335z " />
<glyph unicode="[" horiz-adv-x="423" d="M41 -244v1872h342q-94 -6 -164 -37v-1800q30 -15 76 -23q39 -7 88 -12h-342z" />
<glyph unicode="\" horiz-adv-x="854" d="M41 1640h72l700 -1898h-72z" />
<glyph unicode="]" horiz-adv-x="423" d="M41 -244q99 6 166 35v1800q-75 31 -166 37h342v-1872h-342z" />
<glyph unicode="^" horiz-adv-x="1357" d="M41 682l643 967h14l619 -967h-92l-467 723l-477 -723h-240z" />
<glyph unicode="_" horiz-adv-x="1140" d="M41 0h1059v-102h-1059v102z" />
<glyph unicode="`" horiz-adv-x="446" d="M41 1491h166l199 -309h-117z" />
<glyph unicode="a" horiz-adv-x="1011" d="M47 269q15 65 55 108q39 42 99 64q66 24 118 37q50 12 119 34q57 18 101 53q0 -16 -25 -38q-28 -25 -57 -43q-44 -28 -65 -40q-28 -16 -44 -26q-65 -49 -91 -114q-19 -47 -19 -94q0 -15 2 -30q7 -58 46 -100q38 -41 97 -41q47 0 88 24q40 24 68 64q-6 -34 -30 -58 q-25 -25 -56 -39q-35 -16 -71 -23q-35 -7 -69 -7q-111 0 -173 43q-63 44 -85 102q-14 37 -14 75q0 24 6 49zM125 889q42 37 147 59q61 12 124 12q40 0 81 -5q110 -12 193 -58q70 -41 85 -93q15 -53 15 -130q0 -61 -1 -112q-1 -26 -1.5 -80t-0.5 -82q0 -42 -0.5 -81t0.5 -75 q2 -75 7 -97q7 -35 29 -54q20 -17 43 -23q24 -6 44 -2q23 5 34 12q20 14 47 49l-2 -4q-18 -54 -57 -84t-82 -37q-20 -4 -40 -4q-24 0 -47 6q-43 10 -73 33q-38 29 -54 67q-17 39 -21 85q-4 34 -4 68q0 14 1 28q2 66 2 98l4 322h-2q-4 73 -27 129q-22 55 -80 82 q-36 17 -73 17q-24 0 -47 -7q-60 -18 -88 -82l-20 -46q-11 -25 -19 -38q-11 -17 -27 -26q-17 -9 -43 -9q-37 0 -64 27t-27 60q0 36 44 75z" />
<glyph unicode="b" horiz-adv-x="1181" d="M41 0v2q75 0 113 39q36 37 51 98q13 51 13 115v17q-1 48 -1 141v843q0 101 -31 166q-30 64 -125 70h326v-1491h-346zM442 129q28 -51 78 -78q48 -26 109 -26q136 0 225 131q48 70 70 159q20 81 20 171v17q-1 90 -30 187q-27 92 -83 160q-62 79 -149 106q-28 9 -55 9 q-59 0 -117 -41q-40 -30 -68 -76q28 87 93 117q66 30 149 30q168 0 299 -108q158 -135 158 -379q0 -114 -34 -206q-35 -95 -97 -161q-61 -65 -154 -104q-89 -37 -201 -37q-51 0 -90 12q-38 12 -66 32q-27 20 -42 42q-15 23 -15 43z" />
<glyph unicode="c" horiz-adv-x="909" d="M46 393q-3 29 -3 58q0 75 22 150q29 100 99 186q68 84 176 128q46 19 117 32q46 9 99 9q14 0 29 -1q68 -3 124 -20q60 -18 102 -50q37 -28 50 -63q11 -29 3 -58q-8 -27 -31 -42t-52 -13t-55 25q-28 25 -46 77q-6 21 -17 47q-9 22 -24 39q-16 18 -38 26q-24 9 -60 9 q-82 0 -138 -46t-94 -114q-35 -64 -54 -146q-17 -75 -17 -143q0 -78 23 -153q25 -81 70 -142q46 -63 112 -103q65 -40 153 -40q101 0 156 46q56 47 90 132l22 -6q-40 -123 -124 -170q-83 -47 -218 -47q-151 0 -251 56q-99 55 -157 144q-56 85 -68 193z" />
<glyph unicode="d" horiz-adv-x="1193" d="M44 545q9 99 52 188q44 92 117 154q127 108 305 108q28 0 66 -5q33 -4 66 -20q31 -15 59 -41q26 -25 43 -69q-35 57 -100 86q-45 20 -91 20q-22 0 -45 -5q-71 -15 -139 -78q-68 -64 -109 -193q-20 -62 -26 -137q-2 -28 -3 -57q0 -43 6 -86q9 -73 33 -140q24 -69 64 -123 q45 -63 103 -90q51 -23 105 -23h12q58 3 109 34t81 86q0 -29 -22 -57t-56 -49q-36 -22 -81 -35t-97 -13q-124 0 -212 48q-89 48 -146 125q-56 75 -80 175q-17 69 -17 141q0 28 3 56zM651 1491h326v-1253q0 -57 7 -98q8 -44 27 -74q21 -32 54 -48t88 -16l-348 -2l2 881v379 q0 96 -31 161q-30 64 -125 70z" />
<glyph unicode="e" horiz-adv-x="966" d="M41 475q0 243 182 383q99 74 216 93q45 8 87 8q70 0 134 -21q106 -34 174 -115q69 -83 69 -213h-661q-4 -47 -4 -86q0 -26 2 -47q5 -61 26 -129q40 -123 132 -201q90 -77 229 -77q60 0 111 17q58 19 96 56q42 37 69 121l23 -8q-30 -136 -133 -197q-100 -59 -250 -59 q-126 0 -229 38q-100 37 -177 136q-96 122 -96 301zM250 653h485q-6 84 -32 148q-26 63 -91 102q-51 33 -105 33q-7 0 -15 -1q-62 -5 -112 -41q-51 -37 -86 -98q-37 -64 -44 -143z" />
<glyph unicode="f" horiz-adv-x="882" d="M41 0q57 6 89 20q34 15 50 49q18 37 22 92q5 65 5 152v508h-164v41h164v275q0 93 23 151q24 59 94 111q58 44 146 68q87 24 169 24q83 0 143 -27t60 -86q0 -37 -25 -59q-24 -21 -53 -21q-41 0 -63 25q-18 20 -38 54q-20 33 -39 55q-21 24 -63 24q-61 0 -98 -21t-55 -68 q-19 -50 -25 -119q-6 -72 -6 -177q0 -80 1 -118t1 -91h223v-41h-223v-602q0 -47 5 -87q4 -34 20 -62q14 -26 49 -43q33 -17 88 -27h-500z" />
<glyph unicode="g" horiz-adv-x="1034" d="M41 -170q0 79 41 123q40 43 89 49q8 1 16 1q39 0 73 -25q41 -30 41 -97q-15 27 -35 43q-18 15 -49 15q-53 0 -80 -39q-26 -38 -26 -93q0 -70 49 -116q50 -47 123 -71q66 -22 145 -22h13q89 2 159 26q74 26 123 78t49 132q0 50 -19 82q-18 31 -53 53q-34 22 -76 29 q-46 8 -92 8h-178q-96 0 -154 36q-59 36 -81 85q-13 29 -13 59q0 21 6 42q15 52 68 85q40 26 139 49q-85 39 -137 99q-47 54 -63 121q-7 29 -7 59q0 34 9 69q16 63 57 116q40 52 103 87q64 36 139 43v-28q-47 -12 -79 -56q-31 -43 -49 -101q-17 -57 -19 -124v-7 q0 -57 15 -117q15 -57 48 -101q33 -43 84 -55v-35q-36 -2 -73 -6q-36 -4 -68 -14q-32 -9 -52 -27q-20 -17 -20 -49q0 -38 31 -54q28 -14 81 -17q25 -1 54 -1t62 1q30 1 58 1q38 0 74 -2q70 -5 133 -19q69 -16 119 -53q52 -40 77 -97q24 -55 24 -111v-9q-1 -60 -32 -121 q-30 -59 -85 -98q-122 -86 -348 -86q-81 0 -154 12q-71 12 -132 43q-57 29 -93 81q-35 50 -35 124zM475 336v26q44 6 75 35q29 27 46 70q16 40 24 89q7 45 7 93q0 34 -9 90q-8 49 -25 89q-19 44 -46 71q-29 29 -72 33v26q50 -5 98 -22q50 -18 103 -53q42 32 89 55 q41 20 97 20q60 0 90 -24q31 -25 37 -54q6 -32 -8 -55q-15 -24 -45 -24q-28 0 -45 15q-16 14 -30 35t-30 35q-16 15 -47 15q-41 0 -88 -41q75 -90 89 -182q4 -26 4 -50q0 -62 -25 -113q-35 -73 -111 -122q-77 -50 -178 -57z" />
<glyph unicode="h" horiz-adv-x="1239" d="M41 0q38 6 70 14q28 7 47 26q18 18 28 46t15 74q6 51 6 151v883v99q0 52 -10 91q-11 43 -36 69q-27 29 -77 36h293v-698h2v-541q0 -41 2 -97q2 -43 16 -72q15 -30 47 -49q34 -20 95 -32h-498zM432 782q18 63 64 103q43 38 103 56q48 15 109 15h15q65 -1 124 -21 q60 -20 103 -53q47 -36 64 -79q22 -56 22 -170v-55q0 -60 -1 -95q0 -26 -0.5 -54t0.5 -58q0 -19 0.5 -57t1.5 -56q2 -57 3 -94t7 -58q12 -51 52 -73q41 -23 99 -33h-500q65 7 107 33q38 23 53 102q5 29 6 97q2 92 2 146q0 100 -1 148t-1 109q0 62 -9 116t-44 95 q-39 45 -92 60q-32 9 -65 9l-43 -4q-54 -11 -103 -43q-48 -32 -76 -86z" />
<glyph unicode="i" horiz-adv-x="581" d="M41 0q38 6 70 14q28 7 47 26q17 17 29 46q11 27 16 74q2 18 3 70q1 18 1.5 58t0.5 61q1 44 1 143q0 98 -1 142q0 20 -0.5 60t-1.5 57q-2 50 -3 68q-11 74 -46 103q-36 30 -104 36h326l2 -741q0 -53 4 -86q4 -37 19 -62t49 -42q33 -17 88 -27h-500zM188 1134q0 37 26 68 t75 31t75 -31q24 -29 26 -68v-6q0 -36 -24 -63q-26 -31 -77 -31t-76 31t-25 69z" />
<glyph unicode="j" horiz-adv-x="665" d="M47 -242q-5 16 -5 31q0 24 13 45q21 35 58 35q41 0 57 -31q14 -28 25 -67q12 -42 30 -68q22 -31 76 -31q37 0 61 15q26 16 40 39q15 25 23 55q5 21 11 63q6 61 6 166v703q0 56 -7 97q-8 48 -26 75q-20 30 -55 47q-33 16 -88 16v10h348v-790q0 -128 -4 -207 q-5 -90 -43 -162q-79 -151 -284 -151q-112 0 -168 35t-68 75zM420 1150q0 40 25 69q25 30 77 30q49 0 76 -30t27 -69q0 -38 -26 -69q-25 -30 -77 -30q-54 0 -78 30t-24 69z" />
<glyph unicode="k" horiz-adv-x="1251" d="M41 0v2q38 6 70 14q28 8 47 26q17 17 29 46q11 27 16 74q4 24 4 63v86v885v84q0 43 -6 82t-23 70q-17 30 -47 47q-17 8 -34 11q-25 4 -44 5v2h326v-307h-2v-938h2q0 -41 2 -97q2 -43 16 -72q15 -30 47 -49q34 -20 95 -32v-2h-498zM426 485q46 53 56 63l73 78q47 51 68 77 q26 32 45 61q21 35 21 74q0 43 -50 61q-18 7 -59 12h389q-47 -1 -86 -17q-36 -15 -69 -41q-32 -25 -63 -60l-69 -76l-123 -131l97 -110l132 -148l138 -149q67 -70 110 -107q39 -30 78 -48q38 -17 96 -22v-2h-528v2q39 5 64 15q30 12 30 46q0 29 -18 52t-39 45z" />
<glyph unicode="l" horiz-adv-x="581" d="M41 0v2q38 6 70 14q28 8 47 26q17 17 29 46q11 27 16 74q4 24 4 63v86v885v84q0 43 -6 82t-23 70q-17 30 -47 47q-17 8 -34 11q-25 4 -44 5v2h326v-1278q0 -47 5 -87q4 -34 20 -61q15 -25 49 -42q33 -17 88 -27v-2h-500z" />
<glyph unicode="m" horiz-adv-x="1878" d="M41 0v2q38 6 70 14q28 8 47 26q17 17 29 46q11 27 16 74q1 18 3 69q1 18 1.5 58t0.5 61q1 45 1 143q0 96 -1 140q-2 68 -3 116q-1 31 -4 68q-8 73 -45 104q-36 30 -103 35v2h324l2 -706q0 -41 2 -97q2 -43 16 -72q15 -30 47 -49q34 -20 97 -32v-2h-500zM432 784 q17 40 43 73q22 28 74 56q67 36 152 41q12 1 24 1q70 0 131 -26q72 -30 120 -96t48 -174v-407h2q0 -43 2 -99q2 -43 16 -72q15 -29 48 -49t96 -30v-2h-500v2q38 6 70 14q28 7 47 26q18 18 30 46q10 24 15 74q2 22 3 66q1 15 1.5 48.5t0.5 50.5q0 27 0.5 55t-0.5 58l-2 114 q-1 54 -3 96q0 14 -4 63q-12 86 -63 137q-49 49 -140 49q-134 0 -211 -115zM1079 797q12 44 46 74q37 32 76 49q40 17 87 25q42 7 80 7q67 0 119 -17q58 -19 96 -51q43 -37 66 -84q24 -49 24 -114v-58q0 -64 -1 -103q-1 -30 -1 -61.5t1 -64.5q0 -22 0.5 -64t1.5 -63 q1 -56 3 -104q2 -46 6 -62q15 -51 55 -72q43 -22 99 -32v-2h-500v2q38 6 70 14q28 7 47 26q18 18 30 46q10 24 15 74q2 21 3 64q1 15 1.5 48.5t0.5 50.5v55v58l-2 114q-2 54 -3 96q-1 23 -4 61q-12 89 -62 142q-49 52 -151 52q-140 0 -203 -106z" />
<glyph unicode="n" horiz-adv-x="1230" d="M41 0v2q56 7 95 22q34 13 50 56q17 45 20 127q3 84 3 229t-3 244t-18 159q-15 62 -46 88t-89 31h324l2 -706q0 -41 2 -97q2 -43 16 -72q15 -30 47 -49q34 -20 97 -32zM432 813q15 44 47 70q33 27 73 42q41 15 82 21q42 6 77 6q67 0 122 -14q60 -15 102 -46q45 -32 70 -80 q25 -47 25 -116v-477q0 -55 4 -87q4 -35 21 -61q17 -25 48 -42t87 -27l-498 -2v2q59 7 95 23q35 15 51 56t19 120q3 78 3 213q0 66 -1 99q0 16 -0.5 47t-1.5 46q-1 41 -3 76q0 10 -4 49q-15 95 -76 135q-62 41 -133 41q-63 0 -119 -25q-57 -26 -90 -69z" />
<glyph unicode="o" horiz-adv-x="1124" d="M41 475q0 102 43 188q43 87 115 151q73 66 166 104q91 37 194 39h10l192 -37q100 -38 189 -129q76 -79 108 -170q26 -72 26 -143q0 -18 -2 -36q-7 -88 -48 -169q-40 -81 -109 -142q-66 -59 -161 -98q-90 -37 -201 -37q-108 0 -204 38q-95 38 -165 102q-72 66 -112 152 q-41 88 -41 187zM246 487q0 -109 26 -191q26 -83 71 -145q44 -60 101 -95q57 -34 117 -36h8q57 0 109 28q59 31 104 95q49 70 72 157q25 95 25 173q0 70 -20 153q-19 80 -60 148q-40 67 -103 113q-62 45 -143 45q-125 0 -217 -129q-90 -127 -90 -316z" />
<glyph unicode="p" horiz-adv-x="1193" d="M41 956l346 2v-886l2 -322q1 -81 33 -124q29 -39 127 -56h-500q56 6 88 19q33 14 51 46q20 36 24 91q5 63 5 153v842q0 57 -7 98q-8 44 -27 74q-20 31 -54 47q-33 16 -88 16zM444 94q29 -47 82 -76q52 -28 111 -28q72 0 131 40q60 40 101 105q43 68 65 151q22 84 22 175 q0 81 -22 162q-22 82 -63 148q-43 70 -98 108q-59 41 -128 41q-61 0 -115 -31q-52 -30 -86 -88q16 64 86 108q68 43 170 43q111 0 198 -41q85 -40 142 -108q58 -69 85 -155q28 -90 28 -179q0 -92 -31 -187q-30 -92 -90 -164q-62 -75 -148 -117q-90 -44 -208 -44 q-76 0 -142 33q-68 34 -90 104z" />
<glyph unicode="q" horiz-adv-x="1165" d="M41 444q0 114 34 207q35 96 97 161t155 103q90 37 205 37q98 0 142 -37q45 -38 63 -94q-29 52 -79 79q-51 28 -109 28q-48 0 -105 -26q-55 -25 -101 -82q-47 -57 -76 -144q-29 -86 -29 -213q0 -89 23 -171q24 -84 65 -153q40 -67 99 -109t126 -42q56 0 104 29 q49 30 82 87q0 -38 -22 -64q-23 -28 -58 -46q-38 -20 -77 -28q-44 -9 -84 -9q-100 0 -182 36q-84 37 -143 100q-60 65 -95 154q-35 90 -35 197zM625 -430q46 6 74 16q31 11 49 30q18 20 27 51q8 29 13 83h5v1208h315q-47 -6 -73 -25q-27 -20 -44 -50q-16 -28 -22 -72 q-6 -41 -6 -90v-934q0 -55 4 -88q5 -40 21 -63q18 -26 49 -42t87 -24h-499z" />
<glyph unicode="r" horiz-adv-x="854" d="M41 2q59 7 95 23q34 15 49 59q16 48 19 132q3 87 3 241q0 137 -3 221t-18 129q-15 44 -45 61q-30 16 -88 21h301q4 -29 6 -58q2 -36 2 -51q50 87 130 130q78 42 176 42q78 0 111 -33q34 -34 34 -69q0 -29 -19 -51q-20 -23 -55 -23q-31 0 -50 18t-39 39q-18 20 -44 39 q-25 19 -67 19q-50 0 -80 -34q-30 -35 -48 -85q-19 -53 -26 -113q-8 -62 -9 -118q-1 -29 -1 -54.5t1 -47.5q1 -29 1 -60q0 -88 2 -180q2 -71 16 -110q15 -41 48 -58q36 -19 96 -29h-498z" />
<glyph unicode="s" horiz-adv-x="692" d="M41 717q0 59 24 106q25 49 61 79q38 32 87 48q51 17 100 17q28 0 52 -6l48 -15q8 -2 22 -7t21 -7q20 -6 33 -6q17 0 30 7t28 28v-250q-10 36 -29 81q-17 40 -48 74t-71 55t-94 21q-33 0 -61 -12q-26 -11 -49 -34q-19 -19 -32 -48q-11 -25 -11 -55q0 -61 36 -97 q35 -35 93 -65q60 -31 120 -54q65 -25 121 -63q55 -37 92 -93t37 -142q0 -68 -23 -117q-24 -51 -66 -87q-43 -37 -97 -56t-117 -19q-72 0 -151 31q-15 4 -45 14q-24 8 -46 8q-39 0 -57 -33v312q15 -57 39 -110q24 -54 59 -98t80 -71q43 -26 105 -26q92 0 137 53 q45 52 45 119q0 62 -35 105q-33 41 -88 75q-48 30 -113 61q-64 31 -114 66q-54 39 -88 87q-35 50 -35 124z" />
<glyph unicode="t" horiz-adv-x="718" d="M41 938q51 18 100 61q46 40 89 93q44 54 68 95q29 51 34 68v-276h248v-41h-248v-657q0 -80 19 -133t77 -80q39 -17 82 -17q45 0 78 21q35 23 74 75l16 -12q-40 -77 -112 -106t-158 -29q-128 0 -187 58t-59 196v684h-121z" />
<glyph unicode="u" horiz-adv-x="1212" d="M41 954h332v-91q0 -83 -1 -131t-1 -150t1 -149q2 -73 3 -125q2 -55 6 -79q10 -53 32 -94q21 -39 70 -61q40 -19 80 -22q11 -1 21 -1q32 0 64 7q43 9 80 30q41 23 63 53q-7 -35 -39 -64q-30 -27 -73 -44q-46 -18 -86 -25q-46 -8 -79 -8q-65 0 -122 15q-54 14 -98 47 t-67 81q-24 49 -24 117v59q0 66 1 106q1 30 1 62t-1 66q0 22 -0.5 64.5t-1.5 63.5q-1 58 -3 106q-1 47 -6 63q-15 52 -53 73q-36 20 -99 31zM686 954h332v-96q0 -93 -1 -148t-1 -174q0 -118 1 -172q0 -25 0.5 -73t1.5 -69q2 -65 5 -81q10 -71 45 -103t102 -36v-4h-325v821 q0 68 -49 96q-49 29 -111 39z" />
<glyph unicode="v" horiz-adv-x="1075" d="M41 958h430q-71 -17 -91 -50q-10 -17 -10 -46q0 -30 11 -74q7 -27 16 -51l25 -69l182 -475l19 -46l-58 -149h-61l-281 719l-44 111q-19 45 -36 71t-42 40q-23 13 -60 19zM637 279l149 407q8 23 24 71q11 32 14 69q3 34 -3 63t-30 47q-16 14 -66 22h309q-44 -11 -72 -33 q-29 -23 -54 -59q-23 -33 -43 -81l-42 -103l-170 -449z" />
<glyph unicode="w" horiz-adv-x="1566" d="M41 958h422q-111 -12 -111 -100q0 -48 43 -190l140 -430l190 520q14 36 19 71q5 36 -3 63q-7 27 -33 45q-23 16 -75 21h428q-50 -6 -75 -22q-27 -17 -34 -43q-8 -28 -2 -63t21 -85l147 -507l15 -54l-70 -182h-39l-250 772l-295 -772h-41l-252 784q-20 58 -26 73 q-11 27 -29 50q-15 19 -38 32q-18 10 -52 17zM1149 319l145 375q20 51 30 96q5 21 5 41q0 17 -4 33q-7 31 -36 57q-23 20 -81 37h318q-40 -5 -63 -24q-27 -22 -45 -50q-21 -32 -35 -66l-29 -70l-189 -484z" />
<glyph unicode="x" horiz-adv-x="1103" d="M41 0q75 12 121 58q49 49 104 120l211 264l-67 103l-95 143l-93 137q-45 65 -66 86q-16 14 -43 28q-16 8 -54 22h459q-47 -6 -65 -26q-19 -21 -19 -48q0 -40 31 -91q29 -48 53 -91l72 -117l194 256q13 23 13 47q0 21 -16 43q-15 21 -50 27h309q-85 -18 -146 -73 q-58 -53 -120 -128l-160 -207l238 -375q47 -78 92 -122q46 -44 119 -56h-463q37 5 62 16q26 12 26 54q0 29 -23 68l-47 75l-120 193l-46 -58l-66 -82l-62 -81q-32 -42 -37 -52q-15 -23 -15 -49q0 -66 99 -84h-330z" />
<glyph unicode="y" horiz-adv-x="1077" d="M41 954h434q-48 -6 -79 -24t-31 -70q0 -25 11 -61q14 -46 34 -99l190 -479l164 404q22 53 39 106q19 57 20 103v8q0 42 -21 71q-24 34 -87 41h321q-44 -12 -67 -25q-25 -14 -47 -48q-32 -49 -105 -224l-328 -794q-18 -45 -44 -102q-17 -39 -49 -79q-27 -35 -64 -54 t-90 -19q-73 0 -107 31q-29 26 -29 53q0 4 1 8q5 31 41 48q15 7 35 7q30 0 71 -16q23 -10 41 -15q22 -6 33 -6q30 0 53 20q21 19 40 48q19 30 30 62l24 65q16 44 19 56q6 22 4 48q-1 24 -14 55q-23 57 -29 72l-269 639l-26 65q-10 25 -28 52q-14 21 -37 36q-19 12 -54 17z " />
<glyph unicode="z" horiz-adv-x="927" d="M41 0v25l631 905h-248q-66 0 -111 -9q-42 -8 -79 -34q-32 -22 -58 -66q-25 -43 -47 -102v2l2 237h754v-22l-631 -905q78 0 124 -1h27q55 0 110 3q79 5 131 15q65 12 104 34q91 52 135 182l2 -4l-2 -260h-844z" />
<glyph unicode="{" horiz-adv-x="610" d="M41 711v26q71 10 107 36t50 65q13 36 11 90q-2 68 -2 112q0 30 -2 110t-1 120q1 59 6 113q4 53 17 92q22 63 61 98q36 31 84 47q41 13 97 15q67 2 100 5q0 -22 -10 -28q-12 -7 -27 -8q-6 -1 -38 -9q-24 -6 -50 -28t-43 -56q-14 -29 -19 -68q-5 -42 -5 -81v-92v-91v-114 q0 -58 -3 -109t-9 -75q-12 -58 -58 -100q-45 -40 -110 -52v-10q58 -7 102 -45q43 -37 61 -90q14 -49 15 -132q2 -120 1 -189q-1 -99 0 -193q2 -101 11 -148q15 -68 44 -94q28 -26 61 -37q25 -9 54 -16q23 -6 23 -33l-100 4q-46 1 -92 14q-42 11 -79 38q-36 26 -60 75 q-34 70 -35 157t0 171l6 321q2 93 -38 135q-41 44 -130 54z" />
<glyph unicode="|" horiz-adv-x="212" d="M41 -547v2298h131v-2298h-131z" />
<glyph unicode="}" horiz-adv-x="612" d="M41 -258q0 23 12 29q10 5 32 10q24 5 45 13q24 8 52 38q46 52 50 143q6 122 6 207v277q0 63 12 114q12 52 53 93q52 46 113 53v10q-67 12 -110 52t-58 100q-9 43 -10 109q-2 96 -2 154q0 107 1 158q1 68 -4 121q-5 50 -17 81q-14 34 -48 63q-26 22 -49 28q-31 8 -40 9 q-16 1 -28 8q-10 6 -10 28q34 -3 101 -5q58 -2 99 -15q48 -16 84 -47q38 -33 60 -98q13 -42 17 -100q6 -77 7 -122q1 -42 -1 -130q-1 -24 -2.5 -66t-1.5 -58q-1 -23 2 -103q2 -46 12 -69q17 -41 62 -63q43 -21 91 -27v-26q-74 -11 -109 -37q-36 -27 -48 -69q-12 -44 -11 -97 q3 -111 3 -119l4 -313q0 -42 -7 -98q-6 -52 -23 -89q-19 -42 -46 -71q-30 -31 -74 -49q-54 -20 -100 -21q-52 -2 -119 -6z" />
<glyph unicode="~" horiz-adv-x="987" d="M41 369q0 9 6 30t16 44q11 25 25 46q15 22 31 37q73 68 142 80q73 12 140 -2q77 -17 139 -41q69 -27 136 -36q66 -9 135 14q68 23 135 106q0 -12 -8 -38q-6 -20 -23 -50q-18 -33 -34 -52q-22 -26 -43 -42q-45 -30 -88 -41q-43 -12 -94 -10q-50 2 -99 13q-49 12 -106 30 q-6 2 -74 23q-38 12 -77 18q-38 6 -76 3q-36 -3 -68 -22q-30 -19 -58 -47t-57 -63z" />
<glyph unicode="&#xa1;" horiz-adv-x="808" d="M41 -152q36 1 83 10q45 8 73 21q32 15 56 40t36 69q6 27 12 123q7 114 11 226q8 243 9 273q3 147 6 266l5 200q1 79 4 79q0 31 21 11q23 -22 47 -62q31 -54 48 -95q21 -53 21 -83q2 0 5 -63q4 -79 5 -157q1 -48 5 -209q1 -21 9 -218q1 -34 10 -185q4 -74 13 -106 q12 -44 36 -69q24 -26 57 -40q29 -12 73 -21q45 -9 82 -10h-727zM268 1436q0 42 25 78q24 34 60 49q34 14 76 8q40 -6 73 -39t39 -74q6 -39 -10 -77q-15 -36 -48 -60q-34 -25 -78 -25q-59 0 -98 40t-39 100z" />
<glyph unicode="&#xa2;" horiz-adv-x="907" d="M42 444q-1 98 32 191q33 92 99 167q65 73 165 113q14 6 22 9q4 1 8 2.5t9.5 3t9.5 2.5v250h131v-228q80 4 159 -12t132 -57q37 -28 50 -63q11 -29 3 -58q-7 -27 -32 -42q-23 -15 -51 -13q-29 2 -55 25q-28 25 -46 77q-3 9 -18 47q-10 24 -23 39q-16 18 -38 26 q-24 9 -60 9q-13 0 -21 -2v-877q32 -8 76 -8q101 0 156 46q56 47 90 132l22 -6q-40 -123 -124 -170q-83 -47 -218 -47h-2v-209h-131v223q-114 23 -192 91q-76 65 -114 154q-38 87 -39 185zM236 483q0 -100 38 -195q38 -96 113 -163v749q-43 -36 -70 -81q-29 -46 -47 -102 q-19 -57 -26 -108q-8 -58 -8 -100z" />
<glyph unicode="&#xa3;" horiz-adv-x="1372" d="M41 0q85 0 146 38q60 38 77 118q15 51 15 172v833q0 99 31 161q31 61 84 98q50 34 116 47q63 12 127 9q61 -3 119 -17q63 -15 92 -27l6 -5q-87 -2 -148 -16q-65 -16 -104 -47q-40 -33 -60 -86q-20 -54 -20 -135v-568h434v-73h-434q-4 -100 32 -170q38 -72 98 -114 q62 -43 144 -61q81 -18 161 -12q81 6 156 36q74 30 127 81q53 52 74 123q21 72 -3 162l2 -8q22 -89 14 -185q-7 -90 -50 -168q-41 -75 -119 -127q-77 -52 -191 -59l-2 -2h-320h-604v2z" />
<glyph unicode="&#xa4;" horiz-adv-x="1228" d="M41 700q0 96 31 187q29 86 86 160q54 70 130 123q74 52 165 79l-91 142h117l94 -119q14 2 21 2h20q16 0 48 -2q25 -2 47 -6l100 125h117l-103 -158q79 -30 147 -84q62 -50 115 -123q48 -67 76 -152q27 -82 27 -174q0 -89 -28 -176q-27 -83 -77 -153q-53 -74 -116 -123 q-71 -55 -150 -84l109 -168h-117l-111 137q-44 -6 -84 -6h-30l-105 -131h-117l97 151q-87 23 -167 78q-76 52 -132 125q-56 72 -87 162q-32 91 -32 188zM145 700q0 -82 29 -160q30 -79 78 -138q49 -60 118 -103q67 -42 148 -59l43 65h166l33 -51q66 22 129 67q57 41 102 102 q43 57 67 129q23 68 23 148q0 79 -23 147q-24 71 -66 128t-100 100q-60 44 -126 68l-39 -62h-166l-49 74q-78 -17 -145 -58q-66 -41 -117 -103q-50 -61 -77 -135q-28 -78 -28 -159z" />
<glyph unicode="&#xa5;" horiz-adv-x="1675" d="M41 1491v4h735v-4q-34 -1 -67 -6q-34 -5 -59 -15q-27 -11 -41 -32q-15 -22 -15 -62q0 -32 18 -69q17 -35 41 -72l305 -479l291 454q31 51 40 100q9 50 -6 90q-15 39 -57 65q-43 26 -110 26v4h518v-4q-55 -6 -85 -17q-35 -12 -68 -44q-37 -36 -81 -92q-45 -58 -89 -126 l-258 -393q-25 -37 -36 -55q-13 -22 -21 -45t-9 -48q-2 -34 -2 -65v-14h348v-68h-348q-2 -88 -2 -146q0 -87 4 -142h346v-70h-338q0 -8 2 -10q16 -71 71 -112q53 -39 130 -44h-696q111 6 160 49q48 42 65 117h-387v70h395l3 45q1 15 1 49v194h-399v68h395q-7 54 -36 115 q-27 57 -66 114l-344 520q-27 42 -55 71q-26 27 -54 45t-62 25q-35 8 -77 9z" />
<glyph unicode="&#xa6;" horiz-adv-x="135" d="M41 -104l6 727h53l-6 -727h-53zM41 944v701h53v-701h-53z" />
<glyph unicode="&#xa7;" horiz-adv-x="692" d="M41 717q0 99 57 159q56 59 140 80q-39 21 -75 45q-34 23 -63 55q-27 30 -43 68t-16 88q0 60 24 107q25 49 61 79q38 32 87 48q48 16 100 16q28 0 52 -6q16 -4 48 -14q8 -3 22.5 -8t20.5 -7q20 -6 33 -6q17 0 30 7t28 28v-250q-10 36 -29 81q-18 42 -48 75t-71 54 q-42 22 -94 22q-30 0 -61 -13q-28 -12 -49 -33q-18 -18 -32 -49q-11 -25 -11 -55q0 -60 36 -96q38 -38 93 -66q60 -31 120 -54q68 -26 121 -62q54 -37 92 -94q37 -56 37 -142q0 -88 -43 -150q-44 -64 -110 -96q65 -38 109 -96t44 -153q0 -68 -23 -117q-24 -51 -66 -87 q-43 -37 -97 -56t-117 -19q-72 0 -151 31q-15 4 -45 14q-24 8 -46 8q-39 0 -57 -33v312q15 -57 39 -110q24 -54 59 -98t80 -71q43 -26 105 -26q92 0 137 53q45 52 45 119q0 62 -35 105q-33 41 -88 75q-48 30 -113 61q-64 31 -114 66q-54 39 -88 87q-35 50 -35 124zM152 793 q0 -50 26 -83q27 -34 70 -61q45 -28 95 -48q35 -14 103 -46q36 25 52 61t16 78q0 47 -21 83q-22 37 -56 64q-37 29 -77 51l-88 46q-53 -11 -87 -53q-33 -42 -33 -92z" />
<glyph unicode="&#xa8;" horiz-adv-x="780" d="M41 1198q0 51 35 86t86 35q37 0 68 -22q29 -20 43 -52q13 -30 9 -66q-4 -35 -34 -65q-29 -29 -65 -35t-67 7q-34 14 -54 42q-21 28 -21 70zM496 1198q0 52 34 86q35 35 86 35q38 0 69 -22q29 -20 43 -52q13 -28 8 -66q-4 -35 -34 -65q-29 -29 -64 -35q-37 -6 -68 7 q-32 14 -53 42t-21 70z" />
<glyph unicode="&#xa9;" horiz-adv-x="1228" d="M41 725q0 118 45 223q44 103 123 182t182 123q105 45 223 45q119 0 224 -45q103 -44 182 -123t123 -182q45 -105 45 -223t-45 -223t-123 -183q-77 -77 -182 -122t-224 -45q-118 0 -223 45t-182 122q-78 78 -123 183t-45 223zM145 725q0 -98 37 -182q38 -87 101 -150 q62 -62 149 -100q84 -37 182 -37t182 37q86 37 148 100q61 61 100 150q37 84 37 182q0 97 -37 181q-38 87 -100 149q-62 63 -148 100q-84 37 -182 37t-182 -37q-87 -38 -149 -100q-63 -63 -101 -149q-37 -84 -37 -181zM336 667q-6 61 10 117q18 61 56 105q43 49 100 72 q32 13 66 17q42 5 72 4q38 -2 70 -10t58 -28q32 -27 31 -53t-21 -39q-18 -12 -44 -4q-25 7 -40 53q-12 32 -24 48q-15 20 -56 20q-44 0 -76 -26q-33 -27 -53 -64q-19 -34 -30 -82q-11 -46 -11 -80q0 -41 14 -86q13 -43 39 -79q25 -35 63 -58t87 -23q55 0 86 26q30 25 51 72 l15 -2q-24 -68 -72 -96q-47 -27 -123 -27q-83 0 -141 32t-89 81q-32 50 -38 110z" />
<glyph unicode="&#xaa;" horiz-adv-x="655" d="M46 883q8 36 34 65q23 26 60 40q41 15 73 23q46 11 73 20q35 12 62 34q0 -11 -15 -24q-9 -8 -35 -26q-13 -9 -39 -25q-5 -3 -11.5 -7t-10.5 -6t-6 -4q-41 -29 -56 -69q-15 -39 -10 -77q4 -36 29 -62q24 -26 60 -26q28 0 53 17t41 39q-5 -23 -18 -36q-17 -17 -34 -25 q-18 -8 -43 -13q-21 -4 -42 -4q-72 0 -108 26q-37 27 -52 64q-14 36 -5 76zM67 1219q2 23 26 45q23 21 91 36q63 11 126 4q68 -8 120 -36q42 -23 52 -57q10 -35 10 -81q0 -4 -2 -68q-1 -32 -1 -99v-97q0 -42 5 -59q6 -23 17 -34t26 -14q13 -3 27 -1t22 8q12 5 28 31l-2 -4 q-12 -36 -34 -53q-20 -16 -50 -21q-25 -4 -53 2q-27 6 -45 18q-25 19 -35 42q-10 22 -13 53q-3 25 -1 58q2 40 2 60l2 199h-2q-2 48 -16 80q-15 32 -50 49q-36 19 -72 7q-39 -13 -55 -50q-2 -3 -24 -51q-11 -23 -43 -23q-21 0 -40 17q-18 16 -16 39z" />
<glyph unicode="&#xab;" horiz-adv-x="847" d="M41 307l136 179l98 132l75 100l64 83h116q-38 -48 -75 -100l-86 -117l-93 -126l-92 -126l207 -324h-174zM317 307l137 179l98 132l75 100l63 83h117q-48 -60 -76 -100l-86 -117l-92 -126l-92 -126l207 -324h-174z" />
<glyph unicode="&#xac;" horiz-adv-x="1228" d="M41 887v71h1147v-71h-2v-506h-72v506h-1073z" />
<glyph unicode="&#xad;" horiz-adv-x="587" d="M41 674v74h506v-74h-506z" />
<glyph unicode="&#xae;" horiz-adv-x="1228" d="M41 725q0 118 45 223q44 103 123 182t182 123q105 45 223 45q119 0 224 -45q103 -44 182 -123t123 -182q45 -105 45 -223t-45 -223t-123 -183q-77 -77 -182 -122t-224 -45q-118 0 -223 45t-182 122q-78 78 -123 183t-45 223zM145 725q0 -98 37 -182q38 -87 101 -150 q62 -62 149 -100q84 -37 182 -37t182 37q86 37 148 100q61 61 100 150q37 84 37 182q0 97 -37 181q-38 87 -100 149q-62 63 -148 100q-84 37 -182 37t-182 -37q-87 -38 -149 -100q-63 -63 -101 -149q-37 -84 -37 -181zM389 467q53 5 65 36q11 29 11 79v284q0 52 -11 79 q-12 29 -65 34h277q40 0 67 -10q29 -11 51 -43q16 -23 20 -50q5 -30 -2 -54q-8 -26 -25 -48q-19 -23 -48 -35q-17 -8 -45 -14q35 -15 45 -31q11 -16 27 -51l42 -86q25 -49 40 -65q16 -24 34 -25h-120q-18 36 -28 59l-32 71q-16 35 -35 65q-17 28 -36 40q-17 13 -34 14 q-12 1 -38 1v-135q0 -50 12 -80t64 -35h-236zM551 735q32 0 70 2q28 1 53 25q61 57 28 131q-10 27 -25 40t-35 18q-22 5 -42 5h-49v-221z" />
<glyph unicode="&#xb0;" horiz-adv-x="483" d="M41 1112q0 84 58 142q59 59 143 59q83 0 142 -59q58 -58 58 -142t-58 -142q-59 -59 -142 -59q-84 0 -143 59q-58 58 -58 142zM96 1112q0 -59 43 -102t103 -43q59 0 101 43q42 44 42 102q0 59 -42 101t-101 42q-60 0 -103 -42t-43 -101z" />
<glyph unicode="&#xb1;" horiz-adv-x="1228" d="M41 700v72h539v537h71v-537h537v-72h-537v-538h-71v538h-539zM252 -8v71h756v-71h-756z" />
<glyph unicode="&#xb2;" horiz-adv-x="434" d="M41 748v8l72 69q36 36 74 82q36 43 66 87q29 42 48 83q23 52 23 102q0 51 -39 91q-15 15 -37 26q-19 7 -29 7q-36 1 -58 -17q-21 -18 -26 -44q-5 -27 7 -50q13 -25 36 -31h-30q-12 0 -29 5q-14 4 -24 16q-10 11 -11 30q0 41 41 70q25 20 46 25q24 6 54 6q74 0 121 -44 t47 -116q0 -42 -16 -77q-15 -33 -41 -67q-24 -32 -56 -62q-24 -22 -63 -54l-56 -48q-21 -17 -38 -34h227l27 6l-19 -69h-317z" />
<glyph unicode="&#xb3;" horiz-adv-x="460" d="M43 845q1 33 26 58t62 25v-8q-37 -30 -37 -78q0 -42 25 -72q24 -29 58 -39q33 -10 71 -1q36 9 63 42q26 34 34 81q7 45 -2 86t-33 68t-56 27l-18 -2v21q32 0 59 26q28 28 36 71t-4 82t-39 68t-67 29q-38 0 -59 -21q-20 -20 -25 -48q-4 -27 8 -53q12 -25 39 -31v-5 q-6 1 -16 2t-16 2q-22 2 -32 5q-17 5 -26 15q-11 12 -12 34q-1 43 43 76q34 26 82 31t90 -10q45 -15 74 -49q30 -35 30 -85q0 -58 -32 -90q-33 -33 -84 -51q135 -41 135 -152q0 -53 -27 -93q-27 -41 -68 -64t-93 -28q-53 -5 -97 11q-53 19 -73 52q-20 34 -19 68z" />
<glyph unicode="&#xb4;" horiz-adv-x="458" d="M41 1192l172 270l205 2l-203 -272h-174z" />
<glyph unicode="&#xb5;" horiz-adv-x="1212" d="M41 -276q69 5 102 35q34 31 45 104q4 59 5 102q2 84 3 193q1 74 1 238q0 166 -1 242t-1 200v116h331q-60 -10 -110 -39q-49 -28 -49 -96v-1100h-326v5zM422 141q22 -31 62 -53q37 -21 80 -30q42 -9 85 -6q40 3 80 22q51 23 71 61t31 94q6 30 7 79q1 52 3 125q1 47 1 149 t-1 150t-1 131v91h331q-63 -11 -99 -31q-37 -20 -52 -73q-4 -16 -6 -63q-2 -48 -3 -106q-1 -21 -1.5 -63.5t-0.5 -64.5q-2 -68 0 -128q1 -40 1 -106v-59q0 -65 -25 -117q-24 -49 -66 -81t-100 -47q-57 -15 -121 -15q-32 0 -78 8q-40 7 -86 25q-43 17 -73 44q-32 29 -39 64z " />
<glyph unicode="&#xb6;" horiz-adv-x="1353" d="M41 834q0 113 34 205q35 95 97 161q62 67 154 105q86 36 200 36q49 0 82 -10q40 -12 64 -26v14h641q-61 -11 -111 -39q-49 -28 -49 -96v-1465h-635v5q70 5 103 35q34 31 45 104q2 12 3 60q1 17 1.5 57.5t0.5 61.5q1 25 1.5 79.5t0.5 82.5q1 61 1 189q-33 -26 -80 -37 q-43 -10 -96 -10q-167 0 -299 109q-158 135 -158 379zM844 -274q61 6 90 37q30 32 41 100q3 31 4 82q2 88 2 163q0 137 1 218t1 246v248q0 156 -1 224t-1 175v96q-54 -12 -96 -41q-41 -29 -41 -90v-1458z" />
<glyph unicode="&#xb7;" horiz-adv-x="325" d="M41 621q0 51 35 86q34 34 86 34q38 0 68 -21q29 -20 43 -52q14 -30 9 -67q-4 -34 -34 -64q-29 -29 -65 -35t-67 7q-34 14 -54 42q-21 29 -21 70z" />
<glyph unicode="&#xb8;" horiz-adv-x="335" d="M41 -78q0 35 22 56q24 23 46 24h2q-25 -19 -25 -49q0 -37 33 -55q39 -21 71 -36q41 -19 72 -43q33 -25 33 -79t-37 -84q-39 -31 -90 -31q-70 0 -94 43q-25 45 -29 94q11 -44 37 -87q24 -40 80 -40q38 0 57 22t19 50q0 39 -31 61q-29 20 -68 39q-33 16 -67 43 q-31 25 -31 72z" />
<glyph unicode="&#xb9;" horiz-adv-x="303" d="M41 801q22 1 47 10q21 7 27 37q4 9 4 45q0 127 1 189t1 188h-62q34 1 61 14q26 12 54 33h8v-422q0 -47 16 -69q15 -21 64 -25h-221z" />
<glyph unicode="&#xba;" horiz-adv-x="772" d="M41 1057q0 98 61 177q60 78 153 116q90 37 197 20t191 -104q76 -79 85 -172q9 -92 -31 -171t-122 -131q-83 -53 -188 -53q-68 0 -134 25q-65 25 -110 67q-47 44 -74 102q-28 61 -28 124zM176 1065q0 -104 38 -178t93 -107t117 -21t106 77q34 46 50 105q16 58 16 114 q0 49 -13 100q-14 55 -40 98q-27 44 -68 75q-41 30 -96 30q-83 0 -143 -84q-60 -88 -60 -209z" />
<glyph unicode="&#xbb;" horiz-adv-x="903" d="M41 801h117l63 -83l75 -100l98 -132l136 -179l-176 -299h-174l207 324l-92 126l-92 126l-87 117zM373 801h116l64 -83l75 -100l98 -132l136 -179l-176 -299h-174l207 324l-92 126l-92 126l-88 117z" />
<glyph unicode="&#xbc;" horiz-adv-x="960" d="M41 610q35 4 60 15q27 11 34 49q6 18 6 59q0 168 1 251t1 251h-69q43 5 72 20q33 17 67 41h12v-559q0 -63 21 -92t86 -35h-291zM156 -6l567 1575h74l-570 -1575h-71zM477 410v12l326 534h22v-528q31 0 55 6q22 6 33 39l7 41v-180q-4 51 -24 63q-21 13 -71 13v-41 q0 -23 3 -44q3 -20 13 -40t29 -27q1 0 6.5 -1.5t8.5 -2.5l20 -4h-254q58 6 73 29t15 81v50h-262zM502 428h237v385z" />
<glyph unicode="&#xbd;" horiz-adv-x="1058" d="M41 610q34 4 61 15q28 11 35 49q6 18 6 59q0 168 1 251t1 251h-73q42 5 74 20t69 41h12v-559q0 -63 21 -92t86 -35h-293zM145 -6l568 1575h73l-569 -1575h-72zM580 252v10q48 42 90 86q51 54 91 104q51 63 82 108q37 53 60 104q29 64 28 126q-1 63 -48 113q-18 22 -47 33 q-22 8 -35 8q-49 2 -73 -21q-26 -24 -32 -56q-6 -31 9 -61q15 -31 45 -38v-2q-25 0 -38 1q-21 2 -36 7q-16 6 -29 19t-14 36q-2 52 49 91q27 21 58 29q28 7 69 7q91 0 150 -54t59 -144q0 -47 -20 -95q-19 -44 -51 -86q-31 -40 -70 -76q-46 -42 -78 -67l-119 -102h285l32 8 l-22 -88h-395z" />
<glyph unicode="&#xbe;" horiz-adv-x="1112" d="M44 738q3 40 30 70t71 30l2 -11q-43 -34 -43 -90q0 -50 29 -85q27 -33 69 -47q41 -14 83 -2q44 12 73 50q32 42 40 97q8 54 -4 100q-12 47 -39 80t-66 33l-19 -5v25q37 0 70 33q34 34 41 83q8 52 -5 96q-13 45 -45 80q-31 34 -79 34q-46 0 -70 -26q-25 -26 -29 -57 q-5 -34 9 -62q15 -31 47 -38v-2q-25 0 -39 1q-18 1 -38 8q-19 6 -30 19q-13 14 -14 38q-2 51 51 92q43 32 98 36q60 5 106 -12q51 -19 86 -58q36 -40 36 -101q0 -65 -38 -106q-36 -39 -97 -62q155 -43 155 -176q0 -65 -30 -111q-29 -45 -80 -73q-50 -27 -109 -33t-114 12 q-63 22 -86 60q-25 42 -22 80zM307 -6l567 1575h74l-569 -1575h-72zM629 410v12l325 534h23v-528q30 0 54 6q23 6 34 39l6 41v-184q-5 53 -22 66q-19 14 -72 14v-41q0 -23 3 -44q3 -22 12 -40q10 -20 30 -27q1 0 6 -1.5t9 -2.5l24 -4h-258q58 6 73 29t15 81v50h-262z M653 428h238v385z" />
<glyph unicode="&#xbf;" horiz-adv-x="821" d="M42 57q3 87 50 192q45 100 150 216q27 30 93 95q64 63 119 123q56 61 101 127q42 62 41 105q0 52 -49 111q55 0 88 -42t33 -97q0 -41 -25 -96q-25 -56 -63 -112q-35 -53 -86 -120l-93 -120l-84 -111q-35 -47 -59 -97q-56 -114 -42 -216q13 -100 67 -168q53 -66 131 -86 q78 -19 151 30q27 18 36 46t14 57q2 11 5.5 29.5t4.5 24.5q4 25 22 40q17 14 42 17q22 3 44 -5q20 -7 34 -29q13 -20 13 -53q0 -52 -41 -95t-106 -65q-32 -15 -77 -31q-40 -14 -77 -20q-91 -12 -169 8q-82 21 -141 67q-61 47 -95 117q-35 71 -32 158zM455 1219q6 40 39 73 t73 39q43 6 77 -8q39 -16 61 -48q24 -34 24 -79q0 -59 -40 -99t-97 -40q-47 0 -80 24q-32 24 -48 61q-15 36 -9 77z" />
<glyph unicode="&#xc0;" d="M41 0q88 7 145 72t97 149q4 9 36 86l50 121l276 717l27 -62l-185 -475h375l17 -45h-408l-84 -215q-13 -32 -31 -86q-14 -43 -16 -87t11 -79q13 -36 52 -63q37 -27 95 -33h-457zM678 1229l123 264l489 -1182q27 -63 69 -153q36 -76 85 -113q32 -24 67 -31q45 -9 84 -14 h-684q78 7 117 31q40 27 55 59q15 33 12 70q-3 33 -19 74l-29 75l-58 146l-63 153zM698 1878h148l153 -309h-116z" />
<glyph unicode="&#xc1;" d="M41 0q88 7 145 72t97 149q4 9 36 86l50 121l276 717l27 -62l-185 -475h375l17 -45h-408l-84 -215q-13 -32 -31 -86q-14 -43 -16 -87t11 -79q13 -36 52 -63q33 -27 91 -33h-453zM621 1569l198 309h166l-248 -309h-116zM678 1229l123 264l489 -1182q27 -63 69 -153 q36 -76 85 -113q32 -24 67 -31q45 -9 84 -14h-680q73 7 113 31q40 27 55 59q15 33 12 70q-3 33 -19 74l-29 75l-58 146l-63 153z" />
<glyph unicode="&#xc2;" d="M41 0q88 7 145 72t97 149q4 9 36 86l50 121l276 717l27 -62l-185 -475h375l17 -45h-408l-84 -215q-13 -32 -31 -86q-14 -43 -16 -87t11 -79q13 -36 52 -63q37 -27 95 -33h-457zM494 1569l198 309h166l199 -309h-117l-166 205l-164 -205h-116zM678 1229l123 264l489 -1182 q27 -63 69 -153q36 -76 85 -113q32 -24 67 -31q45 -9 84 -14h-684q78 7 117 31q40 27 55 59q15 33 12 70q-3 33 -19 74l-29 75l-58 146l-63 153z" />
<glyph unicode="&#xc3;" d="M41 0q88 7 145 72t97 149q4 9 36 86l50 121l276 717l27 -62l-185 -475h375l17 -45h-408l-84 -215q-13 -32 -31 -86q-14 -43 -16 -87t11 -79q13 -36 52 -63q37 -27 95 -33h-457zM352 1595q0 11 6 30q4 13 16 41q10 23 22 42q14 22 28 33q66 63 130 75q62 12 128 -4 q70 -17 126 -38q69 -26 125 -33q66 -8 124 12q63 22 125 98q0 -13 -7 -34q-9 -27 -22 -48q-15 -24 -33 -48q-16 -22 -39 -38q-35 -24 -80 -36q-44 -11 -85 -10q-47 2 -91 13q-72 19 -98 27l-67 22q-29 10 -70 15q-33 4 -70 1q-36 -3 -63 -19q-29 -16 -51 -41zM678 1229 l123 264l489 -1182q27 -63 69 -153q36 -76 85 -113q32 -24 67 -31q45 -9 84 -14h-684q78 7 117 31q40 27 55 59q15 33 12 70q-3 33 -19 74l-29 75l-58 146l-63 153z" />
<glyph unicode="&#xc4;" d="M41 0q88 7 145 72t97 149q4 9 36 86l50 121l276 717l27 -62l-185 -475h375l17 -45h-408l-84 -215q-13 -32 -31 -86q-14 -43 -16 -87t11 -79q13 -36 52 -63q37 -27 95 -33h-457zM510 1698q0 51 35 86t86 35q37 0 68 -22q29 -20 43 -52q14 -30 9 -67q-4 -34 -34 -64 q-29 -29 -65 -35t-67 7q-34 14 -54 42q-21 28 -21 70zM678 1229l123 264l489 -1182q27 -63 69 -153q36 -76 85 -113q32 -24 67 -31q45 -9 84 -14h-684q78 7 117 31q40 27 55 59q15 33 12 70q-3 33 -19 74l-29 75l-58 146l-63 153zM899 1698q0 51 35 86t86 35q38 0 69 -22 q29 -20 43 -52q13 -28 8 -67q-4 -34 -34 -64q-29 -29 -65 -35t-67 7q-32 14 -53 42q-22 30 -22 70z" />
<glyph unicode="&#xc5;" d="M41 0q67 6 114 41q46 34 82 91q38 59 66 132l66 164l276 717l27 -62l-185 -475h375l17 -45h-408l-84 -215q-18 -46 -33 -93q-14 -43 -14 -93q0 -54 33 -103q32 -49 114 -59h-446zM621 1696q0 66 50 116t122 50q67 0 117 -50q51 -51 51 -116q0 -36 -15 -66 q-16 -32 -39 -52q-25 -22 -55 -34t-64 -12q-69 0 -118 46t-49 118zM678 1229l123 264l489 -1182q31 -73 69 -154q37 -79 85 -112q32 -24 67 -31q45 -9 84 -14h-671q64 7 104 31q35 22 51 53q15 28 15 61q2 41 -15 82l-32 82l-121 299zM717 1694q0 -39 20 -68q22 -31 56 -31 q35 0 54 33q19 32 19 68q0 35 -16 68q-16 34 -57 34q-23 0 -37 -10q-15 -10 -24 -27q-9 -16 -12 -35q-3 -18 -3 -32z" />
<glyph unicode="&#xc6;" horiz-adv-x="2205" d="M41 4q39 5 84 14q36 7 68 31q49 37 85 113q32 69 68 153l490 1176h6h40h105h205h338h506v-373q-18 122 -83 208q-64 85 -190 114q-39 8 -97 12q-40 3 -121 5q-63 1 -125 0q-42 -1 -107 -1v-837h110q60 0 104 11q48 12 85 40q36 27 57 88l9 23l10 30v-518q-10 75 -30 131 q-19 55 -54 91q-33 35 -91 52q-57 17 -135 17h-65v-131q0 -30 2 -80q1 -37 6 -64q7 -75 37 -130q28 -51 74 -85q44 -33 107 -46q61 -13 138 -13q79 0 146 12q65 12 124 41q56 28 100 78q46 52 73 121q10 23 23 68q10 33 22 87v-442h-623l-708 -2q82 4 129 30t69 68 q23 45 29 102q6 59 6 130v247h-371l-49 -116l-57 -146q-15 -35 -31 -74q-14 -34 -17 -75q-3 -39 11 -70q15 -32 55 -59q26 -20 84 -31h-651zM713 614h354l2 840z" />
<glyph unicode="&#xc7;" horiz-adv-x="1574" d="M102 717q0 80 16 173q15 86 48 166q32 78 81 148q51 73 115 123q99 77 231 121q129 43 259 43q99 0 171 -21q102 -30 126 -38q55 -19 88 -26q35 -8 53 19q9 9 19 35l2 -2v-428l-35 92q-16 43 -37 83q-22 43 -47 76q-29 39 -64 71q-60 56 -120 79q-59 23 -140 23 q-116 0 -197 -45t-149 -131q-87 -110 -128 -249q-40 -135 -40 -286q0 -128 30 -251q30 -125 94 -218t167 -151q102 -57 250 -57q107 0 203 35t157 120q59 83 88 234l23 -4q-17 -148 -79 -249q-64 -103 -195 -155q-77 -31 -158 -43q-37 -53 -84 -92q-57 -41 -126 -65 q-68 -23 -142 -11q50 10 91 36q40 25 75 71q15 21 18 27l18 30q-128 5 -237 41q-115 39 -194 102q-81 65 -139 155q-57 88 -84 196q-28 110 -28 223z" />
<glyph unicode="&#xc8;" horiz-adv-x="1540" d="M41 1489h178v2h1026v-373q-18 122 -83 208q-64 86 -189 114q-39 8 -97 12q-40 3 -121 5q-63 1 -125 0q-42 -1 -108 -1v-655h111q59 0 103 11q48 12 85 40t58 88l9 24q6 18 9 29v-518q-10 75 -30 131q-19 55 -54 91q-35 37 -90 53q-54 16 -135 16h-66v-313q0 -30 2 -80 q1 -37 6 -64q7 -75 37 -130q28 -51 74 -85q44 -32 108 -46q61 -13 138 -13t145 12q65 12 124 41q56 28 100 78q46 52 73 121q13 31 24 68q6 19 21 87v-442h-622l-709 -2q83 4 129 30q49 27 70 68q22 42 28 102q6 59 6 130v831q0 73 -6 133t-30 102q-23 41 -72 66 q-47 24 -127 29zM473 1823h166l199 -254h-117z" />
<glyph unicode="&#xc9;" horiz-adv-x="1540" d="M41 1489h178v2h1026v-373q-18 122 -83 208q-64 86 -189 114q-39 8 -97 12q-40 3 -121 5q-63 1 -125 0q-42 -1 -108 -1v-655h111q59 0 103 11q48 12 85 40t58 88l9 24q6 18 9 29v-518q-10 75 -30 131q-19 55 -54 91q-35 37 -90 53q-54 16 -135 16h-66v-313q0 -30 2 -80 q1 -37 6 -64q7 -75 37 -130q28 -51 74 -85q44 -32 108 -46q61 -13 138 -13t145 12q65 12 124 41q56 28 100 78q46 52 73 121q13 31 24 68q6 19 21 87v-442h-622l-709 -2q83 4 129 30q49 27 70 68q22 42 28 102q6 59 6 130v831q0 73 -6 133t-30 102q-23 41 -72 66 q-47 24 -127 29zM610 1569l199 254h166l-248 -254h-117z" />
<glyph unicode="&#xca;" horiz-adv-x="1540" d="M104 1489h179v2h1026v-373q-18 122 -83 208q-64 85 -190 114q-39 8 -97 12q-40 3 -121 5q-63 1 -125 0q-42 -1 -107 -1v-655h110q60 0 104 11q48 12 85 40q36 27 57 88l9 24q1 2 4.5 12.5l5.5 16.5v-518q-10 75 -30 131q-19 55 -54 91t-91 53q-54 16 -135 16h-65v-313 q0 -30 2 -80q1 -37 6 -64q7 -75 37 -130q28 -51 74 -85q44 -33 107 -46q61 -13 138 -13q78 0 146 12q65 12 124 41q56 28 100 78q46 52 73 121q10 23 23 68q10 33 22 87v-442h-623l-709 -2q84 5 130 30q47 26 69 68q23 45 29 102q6 59 6 130v831q0 73 -6 133q-6 58 -31 102 q-23 41 -72 66q-47 24 -127 29zM578 1565l198 309h166l199 -309h-117l-166 204l-164 -204h-116z" />
<glyph unicode="&#xcb;" horiz-adv-x="1415" d="M41 1489h178v2h1026v-373q-18 122 -83 208q-64 86 -189 114q-39 8 -97 12q-40 3 -121 5q-63 1 -125 0q-42 -1 -108 -1v-655h111q59 0 103 11q48 12 85 40t58 88l9 24q6 18 9 29v-518q-10 75 -30 131q-19 55 -54 91q-35 37 -90 53q-54 16 -135 16h-66v-313q0 -30 2 -80 q1 -37 6 -64q7 -75 37 -130q28 -51 74 -85q44 -32 108 -46q61 -13 138 -13t145 12q65 12 124 41q56 28 100 78q46 52 73 121q13 31 24 68q6 19 21 87v-442h-622l-709 -2q83 4 129 30q49 27 70 68q22 42 28 102q6 59 6 130v831q0 73 -6 133t-30 102q-23 41 -72 66 q-47 24 -127 29zM387 1698q0 51 35 86t86 35q38 0 69 -22q29 -20 43 -52q13 -28 8 -67q-4 -34 -34 -64q-29 -29 -65 -35t-67 7q-32 14 -53 42q-22 30 -22 70zM842 1698q0 51 35 86t86 35q37 0 68 -22q29 -20 43 -52q13 -28 8 -67q-4 -35 -33 -64t-65 -35q-37 -6 -68 7 q-32 14 -53 42t-21 70z" />
<glyph unicode="&#xcc;" horiz-adv-x="800" d="M41 1489v2h719v-2q-57 -5 -98 -16q-43 -12 -78 -50q-47 -48 -54 -112q-8 -70 -8 -150v-833q0 -65 4 -102q4 -40 9 -70q21 -84 78 -118q57 -33 137 -38h-707q80 5 127 29q49 25 72 67q24 44 30 102q7 68 7 130v833q0 62 -7 130q-6 59 -30 102q-23 42 -72 67 q-48 25 -129 29zM117 1823h166l198 -254h-116z" />
<glyph unicode="&#xcd;" horiz-adv-x="1382" d="M332 1489v2h719v-2q-81 -4 -129 -29q-49 -25 -72 -67q-25 -46 -31 -102q-6 -59 -6 -130v-833q0 -72 6 -130q6 -56 31 -102q23 -42 72 -67q47 -24 127 -29h-707q79 5 136 38q58 34 79 118q2 10 8 70q4 37 4 102v833q0 80 -8 150q-7 65 -53 112q-35 38 -78 50 q-41 11 -98 16zM610 1569l199 254h166l-248 -254h-117z" />
<glyph unicode="&#xce;" horiz-adv-x="800" d="M41 1489v2h719v-2q-81 -4 -129 -29q-49 -25 -72 -67q-25 -46 -31 -102q-6 -59 -6 -130v-833q0 -72 6 -130q6 -56 31 -102q23 -42 72 -67q47 -24 127 -29h-707q79 5 136 38q58 34 79 118q2 10 8 70q5 47 5 102v833q0 71 -9 150q-7 65 -53 112q-35 38 -78 50q-41 11 -98 16 zM119 1569l198 254h166l199 -254h-117l-166 174l-163 -174h-117z" />
<glyph unicode="&#xcf;" horiz-adv-x="1382" d="M332 1489v2h719v-2q-81 -4 -129 -29q-49 -25 -72 -67q-25 -46 -31 -102q-6 -59 -6 -130v-833q0 -72 6 -130q6 -56 31 -102q23 -42 72 -67q47 -24 127 -29h-707q79 5 136 38q58 34 79 118q2 10 8 70q4 37 4 102v833q0 80 -8 150q-7 65 -53 112q-35 38 -78 50 q-41 11 -98 16zM383 1698q0 51 35 86t86 35q37 0 68 -22q29 -20 43 -52q14 -30 9 -67q-4 -34 -34 -64q-29 -29 -65 -35t-67 7q-34 14 -54 42q-21 28 -21 70zM772 1698q0 51 35 86t86 35q38 0 69 -22q29 -20 43 -52q13 -28 8 -67q-4 -34 -34 -64q-29 -29 -65 -35t-67 7 q-32 14 -53 42q-22 30 -22 70z" />
<glyph unicode="&#xd0;" horiz-adv-x="1703" d="M41 1489h860q61 0 123 -5q45 -4 106 -18q56 -13 99 -34t98 -58q131 -90 209 -224q81 -139 109 -290q28 -152 7 -307q-21 -152 -94 -277q-70 -120 -196 -200q-123 -78 -297 -78h-1022q80 5 127 29q48 25 71 67q22 40 30 102t8 132v354h-123v141h123v336q0 59 -7 129 q-6 62 -29 103q-23 42 -72 68q-48 26 -130 30zM522 356q0 -82 6 -136q6 -53 41 -97q38 -47 100 -68q60 -20 133 -20q75 0 138 14q71 16 115 37q108 50 183 135q74 84 112 203q45 146 42 305q-3 156 -57 301q-53 141 -156 249q-103 107 -257 151q-81 22 -193 17 q-120 -5 -207 -5v-619h140v-141h-140v-326z" />
<glyph unicode="&#xd1;" horiz-adv-x="1716" d="M41 0q80 5 127 29q49 25 72 66t31 101q8 62 8 132v833q0 69 -8 133q-8 61 -31 102q-23 39 -72 65q-45 23 -127 28v2h455l895 -1147v817q0 64 -7 132q-6 59 -30 101q-23 41 -72 66q-47 24 -127 29v2h520v-2q-86 0 -146 -39q-61 -40 -79 -119q-12 -56 -12 -170v-1163h-70 l-1044 1313v-983q0 -77 7 -132q8 -60 31 -101t72 -66q47 -24 127 -29v-2h-520v2zM426 1595q0 11 6 30q7 21 15 41q8 19 23 42q14 22 28 33q66 63 130 75q62 12 128 -4q70 -17 126 -38q69 -26 125 -33q65 -8 123 12q63 22 125 98q0 -13 -7 -34q-10 -31 -21 -48 q-15 -24 -33 -48q-16 -22 -39 -38q-35 -24 -80 -36q-44 -11 -85 -10q-47 2 -91 13q-72 19 -98 27l-67 22q-29 10 -70 15q-33 4 -70 1t-64 -19q-29 -16 -51 -41z" />
<glyph unicode="&#xd2;" horiz-adv-x="1320" d="M42 631q8 117 53 215q46 100 127 179q81 80 181 126t218 54q114 7 233 -34q96 -34 172 -89q77 -57 134 -131q56 -74 88 -165t32 -192q0 -129 -49 -236q-50 -109 -132 -188t-195 -125q-111 -45 -234 -45q-95 0 -188 29q-91 28 -169 81q-79 53 -138 124t-93 163 q-47 121 -40 234zM248 669q-8 -93 2 -177q10 -88 42 -171q31 -82 85 -151q61 -73 126 -107t159 -34q93 0 158 34q67 35 124 107q133 169 133 414q0 140 -37 260q-28 94 -84 180q-57 87 -139 127q-35 16 -74 23q-43 8 -81 8q-39 0 -82 -8q-39 -7 -74 -23q-46 -24 -76 -54 q-34 -35 -63 -75q-30 -42 -50 -87q-14 -31 -34 -93q-28 -86 -35 -173zM367 1569h165l199 -309h-117z" />
<glyph unicode="&#xd3;" horiz-adv-x="1320" d="M41 594q0 101 32 192t88 165q57 74 134 131q76 55 172 89q119 41 233 34q116 -7 217 -54t182 -126t127 -179q46 -99 52 -215q6 -115 -39 -234q-36 -93 -94 -163q-60 -72 -137 -124q-78 -53 -169 -81q-93 -29 -188 -29q-123 0 -234 45q-113 46 -195 125t-132 188 q-49 107 -49 236zM244 584q0 -245 133 -414q57 -72 124 -107q65 -34 158 -34q94 0 159 34t126 107q54 69 85 151q31 83 42 171q10 84 2 177q-7 87 -35 173q-20 62 -34 93q-20 45 -50 87q-28 40 -63 75q-30 30 -76 54q-35 16 -74 23q-43 8 -82 8q-38 0 -81 -8q-39 -7 -74 -23 q-82 -39 -140 -127q-55 -83 -83 -180q-37 -120 -37 -260zM590 1260l198 309h166l-247 -309h-117z" />
<glyph unicode="&#xd4;" horiz-adv-x="1320" d="M41 594q0 101 32 192t88 165q57 74 134 131q76 55 172 89q119 41 233 34q116 -7 217 -54t182 -126t127 -179q46 -99 52 -215q6 -115 -39 -234q-36 -93 -94 -163q-60 -72 -137 -124q-78 -53 -169 -81q-93 -29 -188 -29q-123 0 -234 45q-113 46 -195 125t-132 188 q-49 107 -49 236zM244 584q0 -245 133 -414q57 -72 124 -107q65 -34 158 -34q94 0 159 34t126 107q54 69 85 151q31 83 42 171q10 84 2 177q-7 87 -35 173q-20 62 -34 93q-20 45 -50 87q-28 40 -63 75q-30 30 -76 54q-35 16 -74 23q-43 8 -82 8q-38 0 -81 -8q-39 -7 -74 -23 q-82 -39 -140 -127q-55 -83 -83 -180q-37 -120 -37 -260zM393 1262l199 309h166l198 -309h-116l-166 204l-164 -204h-117z" />
<glyph unicode="&#xd5;" horiz-adv-x="1320" d="M41 594q0 101 32 192t88 165q57 74 134 131q76 55 172 89q119 41 233 34q116 -7 217 -54t182 -126t127 -179q46 -99 52 -215q6 -115 -39 -234q-36 -93 -94 -163q-60 -72 -137 -124q-78 -53 -169 -81q-93 -29 -188 -29q-123 0 -234 45q-113 46 -195 125t-132 188 q-49 107 -49 236zM244 584q0 -245 133 -414q57 -72 124 -107q65 -34 158 -34q94 0 159 34t126 107q54 69 85 151q31 83 42 171q10 84 2 177q-7 87 -35 173q-20 62 -34 93q-20 45 -50 87q-28 40 -63 75q-30 30 -76 54q-35 16 -74 23q-43 8 -82 8q-38 0 -81 -8q-39 -7 -74 -23 q-82 -39 -140 -127q-55 -83 -83 -180q-37 -120 -37 -260zM254 1315q0 11 6 30q5 18 15 40q8 19 23 42q14 22 28 33q66 63 130 75q65 12 128 -3t126 -39q69 -26 125 -33q63 -7 123 13q63 22 125 98q0 -14 -7 -35q-10 -29 -21 -47q-15 -24 -33 -48q-16 -22 -39 -38 q-38 -26 -80 -37q-41 -11 -85 -9q-51 2 -91 12q-57 15 -98 28l-67 21q-34 11 -70 16q-33 4 -70 1q-35 -3 -64 -20q-29 -16 -51 -41z" />
<glyph unicode="&#xd6;" horiz-adv-x="1320" d="M41 594q0 101 32 192t88 165q57 74 134 131q76 55 172 89q119 41 233 34q116 -7 217 -54t182 -126t127 -179q46 -99 52 -215q6 -115 -39 -234q-36 -93 -94 -163q-60 -72 -137 -124q-78 -53 -169 -81q-93 -29 -188 -29q-123 0 -234 45q-113 46 -195 125t-132 188 q-49 107 -49 236zM244 584q0 -245 133 -414q57 -72 124 -107q65 -34 158 -34q94 0 159 34t126 107q54 69 85 151q31 83 42 171q10 84 2 177q-7 87 -35 173q-20 62 -34 93q-20 45 -50 87q-28 40 -63 75q-30 30 -76 54q-35 16 -74 23q-43 8 -82 8q-38 0 -81 -8q-39 -7 -74 -23 q-82 -39 -140 -127q-55 -83 -83 -180q-37 -120 -37 -260zM307 1432q0 57 40 97t97 40q44 0 78 -25q33 -24 48 -60q15 -37 11 -76t-38 -73q-33 -33 -74 -39q-39 -6 -77 10q-36 15 -60 48q-25 34 -25 78zM762 1432q0 57 40 97t97 40q44 0 78 -25q33 -24 48 -60q15 -35 10 -76 q-4 -39 -38 -73q-33 -33 -73 -39q-39 -6 -77 10q-37 16 -61 48q-24 33 -24 78z" />
<glyph unicode="&#xd7;" horiz-adv-x="757" d="M41 180l299 389l-299 389h80l258 -337l260 337h78l-299 -389l299 -389h-76l-262 340l-262 -340h-76z" />
<glyph unicode="&#xd8;" horiz-adv-x="1615" d="M41 735q0 125 39 238q40 114 108 205q69 92 167 161q101 72 212 111q117 40 232 42q109 1 221 -30l41 107h74l-50 -129q131 -51 241 -151q109 -98 171 -224q63 -128 75 -274q12 -147 -48 -299q-44 -111 -117 -201q-74 -90 -170 -155q-94 -63 -209 -100q-112 -36 -231 -36 q-123 0 -230 33l-41 -115h-71l49 139q-96 39 -186 108q-83 64 -146 153q-61 86 -96 193t-35 224zM293 721q0 -298 164 -510l36 -43q21 -24 37 -37l476 1288l-7 4q-42 19 -91 29q-47 10 -101 10t-101 -10q-51 -11 -92 -29q-51 -24 -96 -65q-42 -39 -78 -91q-33 -47 -60 -108 q-25 -55 -42 -115q-45 -147 -45 -323zM588 88q89 -53 217 -53q115 0 197 42q83 42 155 134q69 86 106 186q36 99 52 211q15 108 3 220q-12 113 -42 214q-28 95 -82 189q-52 91 -129 151z" />
<glyph unicode="&#xd9;" horiz-adv-x="1740" d="M41 1180v2h719v-2q-52 -4 -98 -17q-44 -12 -78 -49q-48 -52 -55 -122q-7 -66 -7 -167v-266q0 -119 7 -197q7 -82 53 -157q59 -93 139 -131q78 -37 197 -37q62 0 132 12t136 39q67 27 119 69q52 41 79 99q27 60 30 142q3 83 3 194v258q0 77 -7 132q-7 56 -32 101 q-24 44 -71 68t-127 29v2h520v-2q-80 -5 -127 -29q-48 -25 -72 -67q-25 -43 -32 -101q-7 -56 -7 -133v-338q0 -66 -3 -118t-15 -96q-12 -43 -37 -82q-22 -34 -66 -75q-163 -141 -471 -141q-108 0 -208 18q-96 17 -180 60q-78 40 -131 109q-51 67 -66 171q-6 51 -6 181v311 q0 72 -9 151q-7 66 -53 113q-37 37 -78 49q-43 13 -98 17zM629 1569h166l198 -309h-116z" />
<glyph unicode="&#xda;" horiz-adv-x="1740" d="M41 1180v2h719v-2q-52 -4 -98 -17q-44 -12 -78 -49q-48 -52 -55 -122q-7 -66 -7 -167v-266q0 -119 7 -197q7 -82 53 -157q59 -93 139 -131q78 -37 197 -37q62 0 132 12t136 39q67 27 119 69q52 41 79 99q27 60 30 142q3 83 3 194v258q0 77 -7 132q-7 56 -32 101 q-24 44 -71 68t-127 29v2h520v-2q-80 -5 -127 -29q-48 -25 -72 -67q-25 -43 -32 -101q-7 -56 -7 -133v-338q0 -66 -3 -118t-15 -96q-12 -43 -37 -82q-22 -34 -66 -75q-163 -141 -471 -141q-108 0 -208 18q-96 17 -180 60q-78 40 -131 109q-51 67 -66 171q-6 51 -6 181v311 q0 72 -9 151q-7 66 -53 113q-37 37 -78 49q-43 13 -98 17zM854 1260l199 309h166l-248 -309h-117z" />
<glyph unicode="&#xdb;" horiz-adv-x="1382" d="M-137 1180v2h719v-2q-53 -4 -99 -17q-43 -12 -77 -49q-48 -52 -55 -122q-7 -66 -7 -167v-266q0 -119 7 -197q8 -84 52 -157q59 -93 140 -131q78 -37 196 -37q61 0 132 12t137 39q65 27 118 69q53 43 80 99q27 60 30 142q3 83 3 194v258q0 77 -7 132q-7 56 -32 101 q-24 43 -72 68q-47 24 -127 29v2h521v-2q-80 -5 -127 -29q-48 -25 -72 -67q-25 -43 -32 -101q-7 -56 -7 -133v-338q0 -66 -3 -118t-15 -96q-12 -43 -37 -82q-22 -34 -66 -75q-163 -141 -471 -141q-108 0 -209 18q-94 17 -179 60q-78 40 -131 109q-52 68 -67 171 q-6 51 -6 181v311q0 81 -8 151q-7 66 -53 113q-37 37 -78 49q-43 13 -98 17zM518 1257l199 310h166l198 -310h-116l-166 205l-164 -205h-117z" />
<glyph unicode="&#xdc;" horiz-adv-x="1382" d="M-137 1180v2h719v-2q-53 -4 -99 -17q-43 -12 -77 -49q-48 -52 -55 -122q-7 -66 -7 -167v-266q0 -119 7 -197q8 -84 52 -157q59 -93 140 -131q78 -37 196 -37q61 0 132 12t137 39q65 27 118 69q53 43 80 99q27 60 30 142q3 83 3 194v258q0 77 -7 132q-7 56 -32 101 q-24 43 -72 68q-47 24 -127 29v2h521v-2q-80 -5 -127 -29q-48 -25 -72 -67q-25 -43 -32 -101q-7 -56 -7 -133v-338q0 -66 -3 -118t-15 -96q-12 -43 -37 -82q-22 -34 -66 -75q-163 -141 -471 -141q-108 0 -209 18q-94 17 -179 60q-78 40 -131 109q-52 68 -67 171 q-6 51 -6 181v311q0 81 -8 151q-7 66 -53 113q-37 37 -78 49q-43 13 -98 17zM369 1432q0 57 40 97t97 40q44 0 78 -25q33 -24 48 -60q15 -35 10 -76q-4 -39 -38 -73q-33 -33 -74 -39q-38 -6 -76 10q-37 16 -61 48q-24 33 -24 78zM823 1432q0 57 40 97t98 40q43 0 77 -25 q33 -24 48 -60q15 -37 11 -76t-38 -73q-33 -33 -74 -39q-39 -6 -77 10q-36 15 -60 48q-25 34 -25 78z" />
<glyph unicode="&#xdd;" horiz-adv-x="1675" d="M41 1348v4h735v-4q-23 -1 -67 -7q-37 -5 -59 -14q-26 -11 -41 -33t-15 -61q0 -33 18 -70q15 -31 41 -71l305 -480l291 455q31 52 40 99q9 50 -6 90t-57 66q-43 26 -110 26v4h518v-4q-50 -6 -85 -18t-68 -44q-41 -39 -81 -91q-45 -58 -89 -126l-258 -393q-25 -37 -36 -55 q-13 -21 -21 -46q-8 -23 -9 -48q-2 -34 -2 -64q0 -51 -1 -79q-2 -42 0 -83q2 -54 4 -79q3 -38 9 -66q16 -71 71 -112q53 -39 130 -44h-696q81 4 129 29t71 67q25 46 31 102q6 58 6 132v78q0 67 -29 134q-29 66 -77 136l-344 520q-27 42 -55 71q-26 27 -54 45q-25 16 -62 24 q-40 9 -77 10zM844 1409l145 227h166l-182 -227h-129z" />
<glyph unicode="&#xde;" horiz-adv-x="1069" d="M41 -293q74 0 113 22q35 20 51 59q15 36 13 93q-1 37 -1 123v942q0 101 -31 166q-30 64 -125 70h326v-244q35 31 83 44q46 13 101 13q169 0 299 -108q158 -135 158 -379q0 -114 -34 -206q-35 -95 -97 -161q-61 -65 -154 -104q-89 -37 -200 -37q-51 0 -90 12 q-36 11 -66 31v-338h-346v2zM387 66q58 -41 129 -41q136 0 225 131q48 70 70 159q22 88 20 188q-1 94 -29 187q-27 92 -83 160q-62 78 -150 106q-87 28 -172 -32l-10 -9v-849z" />
<glyph unicode="&#xdf;" horiz-adv-x="1069" d="M41 1364v2h342q11 5 20 6q14 2 21 2q65 0 111 -49q57 -60 57 -174q0 -132 -74 -195q10 2 25 2q114 0 200 -36q92 -38 154 -105q62 -66 97 -161q34 -92 34 -205q0 -244 -158 -379q-105 -90 -237 -105q58 38 98 100q42 66 65 138q22 70 30 160q7 83 0 164q-8 84 -28 152 q-20 67 -57 122q-89 131 -225 131q-71 0 -129 -41v-893h-326q95 6 125 70q31 65 31 166v718q0 93 1 141q2 74 -13 132q-15 61 -51 98q-37 39 -113 39zM387 915q24 15 28 17q16 8 31 12q19 11 41 47q18 32 25 73q8 45 8 86q0 46 -10 86q-11 45 -31 73q-17 27 -43 43 q-23 14 -49 6v-443z" />
<glyph unicode="&#xe0;" horiz-adv-x="1011" d="M47 269q15 65 55 108q39 42 99 64q66 24 118 37q50 12 119 34q57 18 101 53q0 -16 -25 -38q-28 -25 -57 -43q-44 -28 -65 -40q-28 -16 -44 -26q-65 -49 -91 -114q-25 -62 -17 -124q7 -58 46 -100q38 -41 97 -41q47 0 88 24q40 24 68 64q-6 -34 -30 -58q-25 -25 -56 -39 q-35 -16 -71 -23q-35 -7 -69 -7q-111 0 -173 43q-63 44 -85 102q-23 61 -8 124zM81 816q2 36 44 73t147 59q100 19 205 7q110 -12 193 -58q70 -41 85 -93q15 -53 15 -130q0 -61 -1 -112q-1 -26 -1.5 -80t-0.5 -82q-1 -85 0 -156q2 -75 7 -97q7 -35 29 -54q20 -17 43 -23 q24 -6 44 -2q23 5 34 12q20 14 47 49l-2 -4q-18 -54 -57 -84t-82 -37q-46 -8 -87 2q-43 10 -73 33q-38 29 -54 67q-17 39 -21 85q-5 47 -3 96q2 66 2 98l4 322h-2q-4 73 -27 129q-22 55 -80 82q-59 28 -120 10q-60 -18 -88 -82l-20 -46q-11 -25 -19 -38q-11 -17 -27 -26 q-17 -9 -43 -9q-37 0 -64 27q-28 28 -27 62zM178 1315h166l199 -309h-117z" />
<glyph unicode="&#xe1;" horiz-adv-x="1011" d="M47 269q15 65 55 108q39 42 99 64q66 24 118 37q50 12 119 34q57 18 101 53q0 -16 -25 -38q-28 -25 -57 -43q-44 -28 -65 -40q-28 -16 -44 -26q-65 -49 -91 -114q-25 -62 -17 -124q7 -58 46 -100q38 -41 97 -41q47 0 88 24q40 24 68 64q-6 -34 -30 -58q-25 -25 -56 -39 q-35 -16 -71 -23q-35 -7 -69 -7q-111 0 -173 43q-63 44 -85 102q-23 61 -8 124zM81 816q2 36 44 73t147 59q100 19 205 7q110 -12 193 -58q70 -41 85 -93q15 -53 15 -130q0 -61 -1 -112q-1 -26 -1.5 -80t-0.5 -82q-1 -85 0 -156q2 -75 7 -97q7 -35 29 -54q20 -17 43 -23 q24 -6 44 -2q23 5 34 12q20 14 47 49l-2 -4q-18 -54 -57 -84t-82 -37q-46 -8 -87 2q-43 10 -73 33q-38 29 -54 67q-17 39 -21 85q-5 47 -3 96q2 66 2 98l4 322h-2q-4 73 -27 129q-22 55 -80 82q-59 28 -120 10q-60 -18 -88 -82l-20 -46q-11 -25 -19 -38q-11 -17 -27 -26 q-17 -9 -43 -9q-37 0 -64 27q-28 28 -27 62zM432 1008l199 309h166l-248 -309h-117z" />
<glyph unicode="&#xe2;" horiz-adv-x="1011" d="M47 269q15 65 55 108q39 42 99 64q66 24 118 37q50 12 119 34q57 18 101 53q0 -16 -25 -38q-28 -25 -57 -43q-44 -28 -65 -40q-28 -16 -44 -26q-65 -49 -91 -114q-25 -62 -17 -124q7 -58 46 -100q38 -41 97 -41q47 0 88 24q40 24 68 64q-6 -34 -30 -58q-25 -25 -56 -39 q-35 -16 -71 -23q-35 -7 -69 -7q-111 0 -173 43q-63 44 -85 102q-23 61 -8 124zM81 816q2 36 44 73t147 59q100 19 205 7q110 -12 193 -58q70 -41 85 -93q15 -53 15 -130q0 -61 -1 -112q-1 -26 -1.5 -80t-0.5 -82q-1 -85 0 -156q2 -75 7 -97q7 -35 29 -54q20 -17 43 -23 q24 -6 44 -2q23 5 34 12q20 14 47 49l-2 -4q-18 -54 -57 -84t-82 -37q-46 -8 -87 2q-43 10 -73 33q-38 29 -54 67q-17 39 -21 85q-5 47 -3 96q2 66 2 98l4 322h-2q-4 73 -27 129q-22 55 -80 82q-59 28 -120 10q-60 -18 -88 -82l-20 -46q-11 -25 -19 -38q-11 -17 -27 -26 q-17 -9 -43 -9q-37 0 -64 27q-28 28 -27 62zM109 1008l198 309h166l199 -309h-117l-166 204l-164 -204h-116z" />
<glyph unicode="&#xe3;" horiz-adv-x="1011" d="M47 269q15 65 55 108q39 42 99 64q66 24 118 37q50 12 119 34q57 18 101 53q0 -16 -25 -38q-28 -25 -57 -43q-44 -28 -65 -40q-28 -16 -44 -26q-65 -49 -91 -114q-25 -62 -17 -124q7 -58 46 -100q38 -41 97 -41q47 0 88 24q40 24 68 64q-6 -34 -30 -58q-25 -25 -56 -39 q-35 -16 -71 -23q-35 -7 -69 -7q-111 0 -173 43q-63 44 -85 102q-23 61 -8 124zM66 1055q0 9 6 29q7 21 15 41q8 19 23 42t27 33q66 63 130 75q65 12 128 -3t126 -39q69 -26 125 -33q66 -8 125 12q62 21 124 99q0 -14 -7 -35q-8 -25 -22 -47q-20 -32 -32 -48 q-16 -22 -39 -38q-38 -26 -80 -37q-41 -11 -85 -9q-51 2 -91 12q-62 16 -99 28l-66 21q-33 11 -71 16q-33 4 -70 1q-33 -3 -63 -20q-29 -16 -51 -41zM81 816q2 36 44 73t147 59q100 19 205 7q110 -12 193 -58q70 -41 85 -93q15 -53 15 -130q0 -61 -1 -112q-1 -26 -1.5 -80 t-0.5 -82q-1 -85 0 -156q2 -75 7 -97q7 -35 29 -54q20 -17 43 -23q24 -6 44 -2q23 5 34 12q20 14 47 49l-2 -4q-18 -54 -57 -84t-82 -37q-46 -8 -87 2q-43 10 -73 33q-38 29 -54 67q-17 39 -21 85q-5 47 -3 96q2 66 2 98l4 322h-2q-4 73 -27 129q-22 55 -80 82 q-59 28 -120 10q-60 -18 -88 -82l-20 -46q-11 -25 -19 -38q-11 -17 -27 -26q-17 -9 -43 -9q-37 0 -64 27q-28 28 -27 62z" />
<glyph unicode="&#xe4;" horiz-adv-x="1011" d="M47 269q15 65 55 108q39 42 99 64q66 24 118 37q50 12 119 34q57 18 101 53q0 -16 -25 -38q-28 -25 -57 -43q-44 -28 -65 -40q-28 -16 -44 -26q-65 -49 -91 -114q-25 -62 -17 -124q7 -58 46 -100q38 -41 97 -41q47 0 88 24q40 24 68 64q-6 -34 -30 -58q-25 -25 -56 -39 q-35 -16 -71 -23q-35 -7 -69 -7q-111 0 -173 43q-63 44 -85 102q-23 61 -8 124zM81 816q2 36 44 73t147 59q100 19 205 7q110 -12 193 -58q70 -41 85 -93q15 -53 15 -130q0 -61 -1 -112q-1 -26 -1.5 -80t-0.5 -82q-1 -85 0 -156q2 -75 7 -97q7 -35 29 -54q20 -17 43 -23 q24 -6 44 -2q23 5 34 12q20 14 47 49l-2 -4q-18 -54 -57 -84t-82 -37q-46 -8 -87 2q-43 10 -73 33q-38 29 -54 67q-17 39 -21 85q-5 47 -3 96q2 66 2 98l4 322h-2q-4 73 -27 129q-22 55 -80 82q-59 28 -120 10q-60 -18 -88 -82l-20 -46q-11 -25 -19 -38q-11 -17 -27 -26 q-17 -9 -43 -9q-37 0 -64 27q-28 28 -27 62zM137 1210q0 42 31 75q30 32 74 32q33 0 61 -20q25 -18 38 -47q12 -26 7 -59t-31 -56q-26 -26 -56 -30q-33 -5 -59 7q-28 12 -46 38q-19 27 -19 60zM487 1210q0 43 32 75t75 32q34 0 60 -20t38 -47q12 -28 8 -59q-5 -33 -28 -56 q-29 -26 -59 -30q-33 -5 -59 7q-27 12 -47 38t-20 60z" />
<glyph unicode="&#xe5;" horiz-adv-x="1011" d="M47 269q15 65 55 108q39 42 99 64q66 24 118 37q50 12 119 34q57 18 101 53q0 -16 -25 -38q-28 -25 -57 -43q-44 -28 -65 -40q-28 -16 -44 -26q-65 -49 -91 -114q-25 -62 -17 -124q7 -58 46 -100q38 -41 97 -41q47 0 88 24q40 24 68 64q-6 -34 -30 -58q-25 -25 -56 -39 q-35 -16 -71 -23q-35 -7 -69 -7q-111 0 -173 43q-63 44 -85 102q-23 61 -8 124zM81 816q2 36 44 73t147 59q100 19 205 7q110 -12 193 -58q70 -41 85 -93q15 -53 15 -130q0 -61 -1 -112q-1 -26 -1.5 -80t-0.5 -82q-1 -85 0 -156q2 -75 7 -97q7 -35 29 -54q20 -17 43 -23 q24 -6 44 -2q23 5 34 12q20 14 47 49l-2 -4q-18 -54 -57 -84t-82 -37q-46 -8 -87 2q-43 10 -73 33q-38 29 -54 67q-17 39 -21 85q-5 47 -3 96q2 66 2 98l4 322h-2q-4 73 -27 129q-22 55 -80 82q-59 28 -120 10q-60 -18 -88 -82l-20 -46q-11 -25 -19 -38q-11 -17 -27 -26 q-17 -9 -43 -9q-37 0 -64 27q-28 28 -27 62zM266 1176q0 55 44 99t106 44q36 0 65 -16q31 -17 50 -43q20 -27 27 -61q8 -35 -7 -71q-16 -43 -55 -68q-40 -26 -84 -26q-59 0 -103 41q-43 40 -43 101zM348 1176q0 -40 17 -76q17 -35 49 -35q36 0 53 35q16 33 16 76 q0 42 -17 75q-18 35 -50 35q-34 0 -51 -35q-17 -36 -17 -75z" />
<glyph unicode="&#xe6;" horiz-adv-x="1521" d="M47 269q15 65 55 108q39 42 99 64q66 24 118 37q50 12 119 34q57 18 101 53q0 -16 -25 -38q-28 -25 -57 -43q-44 -28 -65 -40q-28 -16 -44 -26q-65 -49 -91 -114q-25 -62 -17 -124q7 -58 46 -100q38 -41 97 -41q47 0 88 24q40 24 68 64q-6 -34 -30 -58q-25 -25 -56 -39 q-35 -16 -71 -23q-35 -7 -69 -7q-111 0 -173 43q-63 44 -85 102q-23 61 -8 124zM81 816q2 36 44 73t147 59q100 19 205 7q110 -12 193 -58q51 -29 73 -70l35 31q99 74 216 93q119 20 221 -13q106 -34 174 -115q69 -83 69 -213h-661q-6 -79 -2 -133q5 -61 26 -129 q41 -123 132 -201q90 -77 229 -77q60 0 111 17q58 19 96 56q42 37 69 121l23 -8q-30 -136 -133 -197q-100 -59 -250 -59q-126 0 -229 38q-100 37 -177 136q-82 100 -94 250q0 4 -1 10t-2 10q-1 7 -1 21l4 242h-2q-4 73 -27 129q-22 55 -80 82q-59 28 -120 10 q-60 -18 -88 -82l-20 -46q-11 -25 -19 -38q-11 -17 -27 -26q-17 -9 -43 -9q-37 0 -64 27q-28 28 -27 62zM805 653h485q-6 84 -32 148q-26 63 -91 102q-58 37 -120 32t-112 -41q-51 -37 -86 -98q-37 -64 -44 -143z" />
<glyph unicode="&#xe7;" horiz-adv-x="909" d="M45 408q-7 103 23 203t99 182q68 82 173 122q46 19 117 32q59 11 128 8q68 -3 124 -20q60 -18 102 -50q37 -28 50 -63q11 -29 3 -58q-8 -27 -31 -42t-52 -13t-55 25q-28 25 -46 77q-6 21 -17 47q-9 22 -24 39q-16 18 -38 26q-24 9 -60 9q-82 0 -138 -46t-94 -114 q-35 -64 -54 -146q-17 -75 -17 -143q0 -78 23 -153q25 -81 70 -142q46 -63 112 -103q65 -40 153 -40q101 0 156 46q56 47 90 132l22 -6q-29 -87 -78 -133q-51 -48 -120 -68q45 -22 77 -59q33 -38 33 -102q0 -78 -54 -123t-128 -45q-20 0 -42 5q-15 3 -36 13l4 14 q28 -16 64 -16q55 0 82 32q26 30 26 72q0 40 -22 71q-21 30 -56 55q-32 23 -70 40q-36 16 -71 27h4q-136 7 -232 69q-94 61 -143 147q-50 87 -57 192z" />
<glyph unicode="&#xe8;" horiz-adv-x="966" d="M41 475q0 243 182 383q99 74 216 93q119 20 221 -13q106 -34 174 -115q69 -83 69 -213h-661q-6 -79 -2 -133q5 -61 26 -129q40 -123 132 -201q90 -77 229 -77q60 0 111 17q58 19 96 56q42 37 69 121l23 -8q-30 -136 -133 -197q-100 -59 -250 -59q-126 0 -229 38 q-100 37 -177 136q-96 122 -96 301zM233 1317h166l199 -309h-117zM250 653h485q-6 84 -32 148q-26 63 -91 102q-58 37 -120 32t-112 -41q-51 -37 -86 -98q-37 -64 -44 -143z" />
<glyph unicode="&#xe9;" horiz-adv-x="966" d="M41 475q0 243 182 383q99 74 216 93q119 20 221 -13q106 -34 174 -115q69 -83 69 -213h-661q-6 -79 -2 -133q5 -61 26 -129q40 -123 132 -201q90 -77 229 -77q60 0 111 17q58 19 96 56q42 37 69 121l23 -8q-30 -136 -133 -197q-100 -59 -250 -59q-126 0 -229 38 q-100 37 -177 136q-96 122 -96 301zM92 475q0 243 182 383q99 74 216 93q120 20 222 -13q105 -33 173 -115q69 -83 69 -213h-661q-6 -79 -2 -133q5 -61 26 -129q40 -122 133 -201q90 -77 228 -77q60 0 111 17q58 19 96 56q42 37 69 121l23 -8q-30 -136 -133 -197 q-100 -59 -250 -59q-125 0 -228 38q-102 37 -178 136q-96 122 -96 301zM250 653h485q-6 84 -32 148q-26 63 -91 102q-58 37 -120 32t-112 -41q-51 -37 -86 -98q-37 -64 -44 -143zM301 653h485q-6 87 -31 148q-26 63 -91 102q-59 37 -121 32t-112 -41q-51 -37 -86 -98 q-37 -64 -44 -143zM424 1008l199 309h165l-247 -309h-117z" />
<glyph unicode="&#xea;" horiz-adv-x="966" d="M41 475q0 243 182 383q99 74 216 93q119 20 221 -13q106 -34 174 -115q69 -83 69 -213h-661q-6 -79 -2 -133q5 -61 26 -129q40 -123 132 -201q90 -77 229 -77q60 0 111 17q58 19 96 56q42 37 69 121l23 -8q-30 -136 -133 -197q-100 -59 -250 -59q-126 0 -229 38 q-100 37 -177 136q-96 122 -96 301zM240 1008l198 309h166l199 -309h-117l-166 204l-164 -204h-116zM250 653h485q-6 84 -32 148q-26 63 -91 102q-58 37 -120 32t-112 -41q-51 -37 -86 -98q-37 -64 -44 -143z" />
<glyph unicode="&#xeb;" horiz-adv-x="966" d="M41 475q0 243 182 383q99 74 216 93q119 20 221 -13q106 -34 174 -115q69 -83 69 -213h-661q-6 -79 -2 -133q5 -61 26 -129q40 -123 132 -201q90 -77 229 -77q60 0 111 17q58 19 96 56q42 37 69 121l23 -8q-30 -136 -133 -197q-100 -59 -250 -59q-126 0 -229 38 q-100 37 -177 136q-96 122 -96 301zM213 1210q0 42 31 75q30 32 73 32q34 0 62 -20q25 -18 38 -47q12 -26 7 -59t-31 -56q-26 -26 -56 -30q-33 -5 -59 7q-29 13 -47 38q-18 26 -18 60zM250 653h485q-6 84 -32 148q-26 63 -91 102q-58 37 -120 32t-112 -41q-51 -37 -86 -98 q-37 -64 -44 -143zM563 1210q0 43 32 75t75 32q34 0 60 -20t38 -47q12 -28 8 -59q-5 -33 -28 -56q-29 -26 -59 -30q-33 -5 -59 7q-27 12 -47 38t-20 60z" />
<glyph unicode="&#xec;" horiz-adv-x="634" d="M41 1315h166l199 -309h-117zM94 0h500q-55 10 -88 27t-48 42q-16 27 -20 62q-4 33 -4 86l-2 741h-326q68 -6 104 -36q35 -29 46 -103q1 -18 3 -68q1 -17 1.5 -57t0.5 -60q1 -44 1 -142q0 -99 -1 -143q0 -21 -0.5 -61t-1.5 -58q-1 -52 -3 -70q-5 -50 -15 -74 q-12 -28 -30 -46q-19 -18 -47 -26q-32 -8 -70 -14z" />
<glyph unicode="&#xed;" horiz-adv-x="1705" d="M137 1210q0 42 31 75q30 32 74 32q33 0 61 -20q25 -18 38 -47q12 -26 7 -59t-31 -56q-26 -26 -56 -30q-33 -5 -59 7q-28 12 -46 38q-19 27 -19 60zM238 0h499q-55 10 -88 27t-48 42t-19 62q-4 33 -4 86l-3 741h-325q67 -6 103 -36q35 -29 46 -103q1 -18 3 -68 q1 -17 1.5 -57t0.5 -60q2 -88 2 -142q0 -55 -2 -143q0 -21 -0.5 -61t-1.5 -58q-1 -52 -3 -70q-5 -50 -15 -74q-12 -28 -30 -46t-47 -26q-33 -9 -69 -14zM487 1210q0 43 32 75t75 32q34 0 60 -20t38 -47q12 -28 8 -59q-5 -33 -28 -56q-29 -26 -59 -30q-33 -5 -59 7 q-27 12 -47 38t-20 60z" />
<glyph unicode="&#xee;" horiz-adv-x="645" d="M41 1008l199 309h166l198 -309h-117l-165 204l-164 -204h-117zM96 0q38 6 70 14q28 7 47 26q18 18 30 46q10 24 15 74q2 18 3 70q1 18 1.5 58t0.5 61q1 44 1 143q0 98 -1 142q0 20 -0.5 60t-1.5 57q-2 50 -3 68q-11 74 -46 103q-36 30 -103 36h325l2 -741q0 -53 4 -86 q4 -35 20 -62q15 -25 48 -42t88 -27h-500z" />
<glyph unicode="&#xef;" horiz-adv-x="681" d="M41 1210q0 42 31 75q30 32 73 32q34 0 62 -20q25 -18 38 -47q12 -26 7 -59t-31 -56q-26 -26 -56 -30q-33 -5 -60 7q-28 12 -46 38t-18 60zM141 0h500q-55 10 -88 27t-48 42q-16 27 -20 62q-4 33 -4 86l-2 741h-325q67 -6 103 -36q35 -29 46 -103q1 -18 3 -68 q1 -17 1.5 -57t0.5 -60q1 -44 1 -142q0 -99 -1 -143q0 -21 -0.5 -61t-1.5 -58q-1 -52 -3 -70q-5 -50 -15 -74q-12 -28 -30 -46t-47 -26q-32 -8 -70 -14zM391 1210q0 43 32 75t75 32q34 0 60 -20t38 -47q12 -28 8 -59t-29 -56q-29 -26 -58 -30q-33 -5 -59 7q-27 12 -47 38 t-20 60z" />
<glyph unicode="&#xf0;" horiz-adv-x="1038" d="M53 603q21 108 87 201t184 146q128 60 243 34q113 -25 221 -112q-17 132 -49 240q-33 112 -88 205l2 -2q41 0 84 -30q40 -28 80 -74q37 -43 66 -93q30 -52 41 -84q36 -95 56 -214q19 -113 16 -232q-3 -120 -31 -227t-91 -195q-129 -189 -356 -189q-125 0 -223 58 t-157 147q-60 91 -83 202q-23 112 -2 219zM224 474q3 -89 26 -177q23 -87 63 -154q40 -66 96 -102t111 -37q58 -2 113 31q54 32 98 102q78 125 78 342q0 74 -13 153q-14 86 -47 155q-36 74 -91 121q-57 48 -142 48q-77 0 -135 -41q-57 -41 -93 -109q-36 -69 -51 -155 q-16 -90 -13 -177z" />
<glyph unicode="&#xf1;" horiz-adv-x="1230" d="M41 0v2q56 7 95 22q34 13 50 56q17 45 20 127q3 84 3 229t-3 244t-18 159q-15 62 -46 88t-89 31h324l2 -706q0 -41 2 -97q2 -43 16 -72q15 -30 47 -49q34 -20 97 -32zM174 1055q0 9 6 29q4 13 16 41q10 23 22 42q14 22 28 33q66 63 130 75q65 12 128 -3t126 -39 q69 -26 125 -33q66 -8 124 12q62 21 125 99q0 -11 -8 -35q-10 -29 -21 -47q-15 -24 -33 -48q-16 -22 -39 -38q-38 -26 -80 -37q-41 -11 -85 -9q-51 2 -91 12q-57 15 -98 28l-67 21q-34 11 -70 16q-33 4 -70 1q-33 -3 -63 -20q-31 -17 -52 -41zM432 813q15 44 47 70 q33 27 73 42q41 15 82 21q42 6 77 6q67 0 122 -14q60 -15 102 -46q45 -32 70 -80q25 -47 25 -116v-477q0 -55 4 -87q4 -35 21 -61q17 -25 48 -42t87 -27l-498 -2v2q59 7 95 23q35 15 51 56t19 120q3 78 3 213q0 66 -1 99q0 16 -0.5 47t-1.5 46q-1 41 -3 76q0 10 -4 49 q-15 95 -76 135q-62 41 -133 41q-63 0 -119 -25q-57 -26 -90 -69z" />
<glyph unicode="&#xf2;" horiz-adv-x="1124" d="M42 442q-7 87 25 179t107 170q89 90 190 129q101 38 201 37q104 -2 195 -39q93 -38 166 -104q70 -62 114 -151q43 -86 43 -188q0 -99 -41 -187t-111 -152t-166 -102t-204 -38q-111 0 -201 37q-93 38 -160 98q-70 63 -110 142q-41 81 -48 169zM246 473q0 -81 24 -173 q23 -87 72 -157q45 -64 104 -95q56 -30 117 -28q60 2 117 36q57 35 101 95q45 62 71 145q27 86 27 191q0 187 -91 316q-92 129 -217 129q-84 0 -144 -45t-101 -113q-42 -71 -61 -148q-19 -79 -19 -153zM256 1317h166l199 -309h-117z" />
<glyph unicode="&#xf3;" horiz-adv-x="1124" d="M41 475q0 102 43 188q43 87 115 151q73 66 166 104q91 37 194 39q101 2 202 -37q100 -38 189 -129q76 -79 108 -170q32 -90 24 -179q-7 -88 -48 -169q-40 -81 -109 -142q-66 -59 -161 -98q-90 -37 -201 -37q-108 0 -204 38q-95 38 -165 102q-72 66 -112 152 q-41 88 -41 187zM246 487q0 -109 26 -191q26 -83 71 -145q44 -60 101 -95q57 -34 117 -36q61 -2 117 28q59 31 104 95q49 70 72 157q25 95 25 173q0 70 -20 153q-19 80 -60 148q-40 67 -103 113q-62 45 -143 45q-125 0 -217 -129q-90 -127 -90 -316zM504 1008l198 309h166 l-247 -309h-117z" />
<glyph unicode="&#xf4;" horiz-adv-x="1124" d="M41 475q0 102 43 188q43 87 115 151q73 66 166 104q91 37 194 39q101 2 202 -37q100 -38 189 -129q76 -79 108 -170q32 -90 24 -179q-7 -88 -48 -169q-40 -81 -109 -142q-66 -59 -161 -98q-90 -37 -201 -37q-108 0 -204 38q-95 38 -165 102q-72 66 -112 152 q-41 88 -41 187zM246 487q0 -109 26 -191q26 -83 71 -145q44 -60 101 -95q57 -34 117 -36q61 -2 117 28q59 31 104 95q49 70 72 157q25 95 25 173q0 70 -20 153q-19 80 -60 148q-40 67 -103 113q-62 45 -143 45q-125 0 -217 -129q-90 -127 -90 -316zM276 1008l191 309h174 l190 -309h-116l-162 200l-160 -200h-117z" />
<glyph unicode="&#xf5;" horiz-adv-x="1124" d="M41 475q0 102 43 188q43 87 115 151q73 66 166 104q91 37 194 39q101 2 202 -37q100 -38 189 -129q76 -79 108 -170q32 -90 24 -179q-7 -88 -48 -169q-40 -81 -109 -142q-66 -59 -161 -98q-90 -37 -201 -37q-108 0 -204 38q-95 38 -165 102q-72 66 -112 152 q-41 88 -41 187zM174 1055q0 9 6 29q4 13 16 41q10 23 22 42q14 22 28 33q66 63 130 75q65 12 128 -3t126 -39q69 -26 125 -33q66 -8 124 12q62 21 125 99q0 -11 -8 -35q-10 -29 -21 -47q-15 -24 -33 -48q-16 -22 -39 -38q-38 -26 -80 -37q-41 -11 -85 -9q-51 2 -91 12 q-57 15 -98 28l-67 21q-34 11 -70 16q-33 4 -70 1q-33 -3 -63 -20q-31 -17 -52 -41zM246 487q0 -109 26 -191q26 -83 71 -145q44 -60 101 -95q57 -34 117 -36q61 -2 117 28q59 31 104 95q49 70 72 157q25 95 25 173q0 70 -20 153q-19 80 -60 148q-40 67 -103 113 q-62 45 -143 45q-125 0 -217 -129q-90 -127 -90 -316z" />
<glyph unicode="&#xf6;" horiz-adv-x="1206" d="M82 475q0 102 43 188q43 87 115 151q74 67 165 104t195 39q101 2 202 -37q100 -38 189 -129q76 -79 108 -170q32 -90 24 -179q-7 -88 -48 -169q-40 -81 -109 -142q-66 -59 -161 -98q-90 -37 -201 -37q-108 0 -204 38t-166 102t-111 152t-41 187zM287 487q0 -109 26 -191 q26 -83 71 -145q44 -60 101 -95q57 -34 117 -36q61 -2 117 28q59 31 104 95q49 70 72 157q25 95 25 173q0 70 -20 153q-19 80 -60 148q-40 67 -103 113q-61 45 -143 45q-126 0 -217 -129q-90 -127 -90 -316zM291 1182q0 57 40 97t97 40q44 0 78 -25q33 -24 48 -60 q15 -35 10 -76q-4 -39 -38 -73q-32 -32 -73 -38t-77 9q-37 16 -61 48q-24 33 -24 78zM631 1182q0 57 40 97t97 40q44 0 78 -25q33 -24 48 -60q15 -35 10 -76q-4 -39 -38 -73q-32 -32 -73 -38t-77 9q-37 16 -61 48q-24 33 -24 78z" />
<glyph unicode="&#xf7;" horiz-adv-x="1075" d="M41 707v69h993v-69h-993zM412 334q0 57 40 97t97 40q44 0 78 -25q33 -24 48 -60q15 -35 10 -77q-4 -39 -38 -73q-33 -34 -74 -38q-41 -5 -76 10q-37 16 -61 48q-24 33 -24 78zM412 1047q0 57 40 97t97 40q44 0 78 -25q33 -24 48 -60q15 -35 10 -76q-4 -39 -38 -73 q-33 -33 -74 -39q-38 -6 -76 10q-37 16 -61 48q-24 33 -24 78z" />
<glyph unicode="&#xf8;" horiz-adv-x="1124" d="M41 475q0 119 60 219q58 98 156 166q92 64 215 89q121 24 241 -13l43 119h73l-51 -144q48 -22 88 -50q45 -31 84 -70q76 -79 108 -170q32 -90 24 -179q-7 -88 -48 -169q-40 -81 -109 -142q-66 -59 -161 -98q-90 -37 -201 -37q-56 0 -110 10l-41 -112h-72l47 131 q-74 23 -139 68q-62 43 -110 103q-45 57 -71 130t-26 149zM246 487q0 -143 45 -245q46 -104 117 -160l288 805q-63 45 -143 45q-125 0 -217 -129q-90 -127 -90 -316zM467 45q77 -37 165 -15q83 20 150 113q49 70 72 157q25 95 25 173q0 87 -31 192q-30 101 -96 173z" />
<glyph unicode="&#xf9;" horiz-adv-x="1212" d="M41 954h332v-91q0 -83 -1 -131t-1 -150t1 -149q2 -73 3 -125q2 -55 6 -79q10 -53 32 -94q21 -39 70 -61q40 -19 80 -22q43 -3 85 6q43 9 80 30q41 23 63 53q-7 -35 -39 -64q-30 -27 -73 -44q-46 -18 -86 -25q-46 -8 -79 -8q-65 0 -122 15q-54 14 -98 47t-67 81 q-24 49 -24 117v59q0 66 1 106q2 60 0 128q0 22 -0.5 64.5t-1.5 63.5q-1 58 -3 106q-1 47 -6 63q-15 52 -53 73q-36 20 -99 31zM92 954h332v-91q0 -83 -1 -131t-1 -150t1 -149q2 -73 3 -125q2 -55 6 -79q10 -53 32 -94q20 -38 71 -61q40 -19 79 -22q43 -3 85 6q43 9 80 30 q41 23 63 53q-7 -35 -39 -64q-30 -27 -73 -44q-46 -18 -86 -25q-46 -8 -79 -8q-65 0 -122 15q-54 14 -98 47q-42 32 -66 81q-25 52 -25 117v59q0 66 1 106q2 60 0 128q0 22 -0.5 64.5t-1.5 63.5q-1 58 -3 106q-2 47 -6 63q-15 52 -53 73q-36 20 -99 31zM256 1317h166 l199 -309h-117zM686 954h332v-96q0 -93 -1 -148t-1 -174q0 -118 1 -172q0 -25 0.5 -73t1.5 -69q2 -65 5 -81q10 -71 45 -103t102 -36v-4h-325v821q0 68 -49 96q-49 29 -111 39zM737 954h332v-96q0 -93 -1 -148t-1 -174q0 -118 1 -172q0 -25 0.5 -73t1.5 -69q2 -65 5 -81 q10 -71 45 -103q34 -31 103 -36v-4h-326v821q0 68 -49 96q-50 29 -111 39z" />
<glyph unicode="&#xfa;" horiz-adv-x="1212" d="M41 954h332v-91q0 -83 -1 -131t-1 -150t1 -149q2 -73 3 -125q2 -55 6 -79q10 -53 32 -94q21 -39 70 -61q40 -19 80 -22q43 -3 85 6q43 9 80 30q41 23 63 53q-7 -35 -39 -64q-30 -27 -73 -44q-46 -18 -86 -25q-46 -8 -79 -8q-65 0 -122 15q-54 14 -98 47t-67 81 q-24 49 -24 117v59q0 66 1 106q2 60 0 128q0 22 -0.5 64.5t-1.5 63.5q-1 58 -3 106q-1 47 -6 63q-15 52 -53 73q-36 20 -99 31zM92 954h332v-91q0 -83 -1 -131t-1 -150t1 -149q2 -73 3 -125q2 -55 6 -79q10 -53 32 -94q20 -38 71 -61q40 -19 79 -22q43 -3 85 6q43 9 80 30 q41 23 63 53q-7 -35 -39 -64q-30 -27 -73 -44q-46 -18 -86 -25q-46 -8 -79 -8q-65 0 -122 15q-54 14 -98 47q-42 32 -66 81q-25 52 -25 117v59q0 66 1 106q2 60 0 128q0 22 -0.5 64.5t-1.5 63.5q-1 58 -3 106q-2 47 -6 63q-15 52 -53 73q-36 20 -99 31zM465 1008l199 309 h165l-247 -309h-117zM686 954h332v-96q0 -93 -1 -148t-1 -174q0 -118 1 -172q0 -25 0.5 -73t1.5 -69q2 -65 5 -81q10 -71 45 -103t102 -36v-4h-325v821q0 68 -49 96q-49 29 -111 39zM737 954h332v-96q0 -93 -1 -148t-1 -174q0 -118 1 -172q0 -25 0.5 -73t1.5 -69 q2 -65 5 -81q10 -71 45 -103q34 -31 103 -36v-4h-326v821q0 68 -49 96q-50 29 -111 39z" />
<glyph unicode="&#xfb;" horiz-adv-x="1212" d="M41 954h332v-91q0 -83 -1 -131t-1 -150t1 -149q2 -73 3 -125q2 -55 6 -79q10 -53 32 -94q21 -39 70 -61q40 -19 80 -22q43 -3 85 6q43 9 80 30q41 23 63 53q-7 -35 -39 -64q-30 -27 -73 -44q-46 -18 -86 -25q-46 -8 -79 -8q-65 0 -122 15q-54 14 -98 47t-67 81 q-24 49 -24 117v59q0 66 1 106q2 60 0 128q0 22 -0.5 64.5t-1.5 63.5q-1 58 -3 106q-1 47 -6 63q-15 52 -53 73q-36 20 -99 31zM324 1008l198 309h166l199 -309h-117l-166 204l-164 -204h-116zM686 954h332v-96q0 -93 -1 -148t-1 -174q0 -118 1 -172q0 -25 0.5 -73t1.5 -69 q2 -65 5 -81q10 -71 45 -103t102 -36v-4h-325v821q0 68 -49 96q-49 29 -111 39z" />
<glyph unicode="&#xfc;" horiz-adv-x="1212" d="M41 954h332v-91q0 -83 -1 -131t-1 -150t1 -149q2 -73 3 -125q2 -55 6 -79q10 -53 32 -94q21 -39 70 -61q40 -19 80 -22q43 -3 85 6q43 9 80 30q41 23 63 53q-7 -35 -39 -64q-30 -27 -73 -44q-46 -18 -86 -25q-46 -8 -79 -8q-65 0 -122 15q-54 14 -98 47t-67 81 q-24 49 -24 117v59q0 66 1 106q2 60 0 128q0 22 -0.5 64.5t-1.5 63.5q-1 58 -3 106q-1 47 -6 63q-15 52 -53 73q-36 20 -99 31zM301 1210q0 42 31 75q30 32 74 32q33 0 61 -20q25 -18 38 -47q12 -26 7 -59t-31 -56q-26 -26 -56 -30q-33 -5 -59 7q-29 13 -47 38 q-18 26 -18 60zM651 1210q0 43 32 75t75 32q34 0 60 -20t38 -47q12 -28 8 -59q-5 -33 -28 -56q-29 -26 -59 -30q-33 -5 -59 7q-27 12 -47 38t-20 60zM686 954h332v-96q0 -93 -1 -148t-1 -174q0 -118 1 -172q0 -25 0.5 -73t1.5 -69q2 -65 5 -81q10 -71 45 -103t102 -36v-4 h-325v821q0 68 -49 96q-49 29 -111 39z" />
<glyph unicode="&#xfd;" horiz-adv-x="1077" d="M41 954h434q-48 -6 -79 -24t-31 -70q0 -25 11 -61q14 -46 34 -99l190 -479l164 404q22 53 39 106q19 57 20 103q2 48 -21 79q-24 34 -87 41h321q-44 -12 -67 -25q-25 -14 -47 -48q-32 -49 -105 -224l-328 -794q-18 -45 -44 -102q-17 -39 -49 -79q-27 -35 -64 -54t-90 -19 q-73 0 -107 31q-33 30 -28 61t41 48q38 18 106 -9q23 -10 41 -15q22 -6 33 -6q30 0 53 20q21 19 40 48q19 30 30 62l24 65q16 44 19 56q6 22 4 48q-1 24 -14 55q-23 57 -29 72l-269 639l-26 65q-10 25 -28 52q-14 21 -37 36q-19 12 -54 17zM530 1008l199 309h166l-248 -309 h-117z" />
<glyph unicode="&#xfe;" horiz-adv-x="1069" d="M41 -406q75 0 113 39q35 37 51 99q15 58 13 132q-1 48 -1 140v1251q0 101 -31 166q-30 64 -125 70h326v-553q35 31 83 44q46 13 101 13q169 0 299 -108q158 -135 158 -379q0 -114 -34 -206q-35 -95 -97 -161q-61 -65 -154 -104q-89 -37 -200 -37q-51 0 -90 12 q-36 11 -66 31v-451h-346v2zM387 66q58 -41 129 -41q136 0 225 131q48 70 70 159q22 88 20 188q-1 94 -29 187q-27 92 -83 160q-62 78 -150 106q-87 28 -172 -32l-10 -9v-849z" />
<glyph unicode="&#xff;" horiz-adv-x="1077" d="M41 954h434q-48 -6 -79 -24t-31 -70q0 -25 11 -61q14 -46 34 -99l190 -479l164 404q22 53 39 106q19 57 20 103q2 48 -21 79q-24 34 -87 41h321q-44 -12 -67 -25q-25 -14 -47 -48q-32 -49 -105 -224l-328 -794q-18 -45 -44 -102q-17 -39 -49 -79q-27 -35 -64 -54t-90 -19 q-73 0 -107 31t-29 61q4 30 42 48t106 -9q23 -10 41 -15q22 -6 33 -6q30 0 53 20q21 19 40 48q19 30 30 62l24 65q16 44 19 56q6 22 4 48q-1 24 -14 55q-23 57 -29 72l-269 639l-26 65q-10 25 -28 52q-14 21 -37 36q-19 12 -54 17zM283 1210q0 44 30 75q30 32 74 32 q34 0 62 -20q24 -17 37 -47q12 -28 8 -59q-5 -33 -31 -56q-26 -26 -56 -30q-33 -5 -60 7q-28 12 -46 38t-18 60zM633 1210q0 43 32 75t74 32q35 0 61 -20t38 -47q12 -28 8 -59t-29 -56q-29 -26 -58 -30q-33 -5 -60 7t-47 38q-19 25 -19 60z" />
<glyph unicode="&#x152;" horiz-adv-x="2119" d="M41 735q0 155 60 291q61 138 165 241q106 104 246 164q141 60 303 60h1135v-373q-15 95 -49 160q-33 63 -98 105q-62 40 -158 58q-91 17 -236 17q-67 0 -98 -1t-84 -1v-655h78q46 0 98 5q47 4 87 24q38 18 70 58q30 38 42 105v-518q-10 75 -30 131q-19 55 -54 91t-91 53 q-54 16 -135 16h-65v-313q0 -125 20 -201q21 -80 66 -128t113 -69q66 -20 165 -20q100 0 178 18q77 18 139 66q60 46 102 125q43 79 69 198v-442h-1266h-41q-151 5 -283 61q-133 57 -232 156q-101 101 -158 230q-58 131 -58 288zM293 721q0 -133 36 -257t102 -219 q67 -96 162 -153t212 -57q61 0 97 21q34 20 53 60q17 36 22 92q4 48 4 120v831q0 59 -5 121q-4 50 -24 95q-18 41 -54 63q-35 22 -95 22q-141 0 -240 -69q-94 -65 -157 -179q-60 -108 -87 -238q-26 -126 -26 -253z" />
<glyph unicode="&#x153;" horiz-adv-x="1484" d="M41 475q0 96 39 177q40 83 103 143q62 59 146 101q77 38 166 54q82 14 165 2q81 -12 145 -53q99 51 207 57q111 6 199 -30q91 -37 151 -117q59 -78 59 -199h-661q-6 -79 -2 -133q5 -61 26 -129q40 -123 132 -201q90 -77 229 -77q60 0 111 17q58 19 96 56q42 37 69 121 l23 -8q-30 -136 -133 -197q-100 -59 -250 -59q-75 0 -136 10q-65 10 -120 39q-51 -23 -115 -39q-57 -14 -127 -14q-108 0 -204 38q-95 38 -165 102q-72 66 -112 152q-41 88 -41 187zM246 487q0 -146 50 -254q49 -105 125 -160q76 -54 161 -53q84 1 157 70q-45 38 -84 84 q-96 122 -96 301q0 238 176 379q-35 35 -81 56q-49 22 -101 22q-125 0 -217 -129q-90 -127 -90 -316zM768 653h485q-6 87 -31 148q-25 63 -92 102q-58 37 -120 32t-112 -41q-51 -37 -86 -98q-37 -64 -44 -143z" />
<glyph unicode="&#x178;" horiz-adv-x="1675" d="M41 1491v4h735v-4q-34 -1 -67 -6q-34 -5 -59 -15q-27 -11 -41 -32q-15 -22 -15 -62q0 -32 18 -69q17 -35 41 -72l305 -479l291 454q31 51 40 100q9 50 -6 90q-15 39 -57 65q-43 26 -110 26v4h518v-4q-55 -6 -85 -17q-35 -12 -68 -44q-37 -36 -81 -92q-45 -58 -89 -126 l-258 -393q-25 -37 -36 -55q-13 -22 -21 -45t-9 -48q-2 -34 -2 -65q0 -58 -1 -101q-2 -65 0 -132q2 -86 4 -128q3 -61 9 -89q16 -71 71 -112q53 -39 130 -44h-696q81 4 129 29t71 67q25 46 31 102q6 58 6 132v221q0 67 -29 134q-29 66 -77 136l-344 520q-27 42 -55 71 q-26 27 -54 45t-62 25q-35 8 -77 9zM532 1698q0 51 35 86t86 35q38 0 69 -22q29 -20 43 -52q13 -28 8 -67q-4 -34 -34 -64q-29 -29 -64 -35q-37 -6 -68 7q-32 14 -53 42q-22 30 -22 70zM987 1698q0 51 35 86t86 35q38 0 69 -22q29 -20 43 -52q13 -28 8 -67q-4 -34 -34 -64 q-29 -29 -65 -35t-67 7q-32 14 -53 42q-22 30 -22 70z" />
<glyph unicode="&#x2c6;" horiz-adv-x="645" d="M41 1008l199 309h166l198 -309h-117l-165 204l-164 -204h-117z" />
<glyph unicode="&#x2dc;" horiz-adv-x="987" d="M41 1073q0 10 6 31t16 44q11 25 25 46q15 22 31 37q73 68 142 80q73 12 140 -2q77 -17 139 -41q69 -27 136 -36q69 -9 135 13q67 22 135 107q0 -12 -8 -38q-6 -20 -23 -50q-20 -36 -34 -53q-22 -26 -43 -42q-45 -30 -88 -41q-43 -12 -94 -10q-46 1 -99 14q-60 14 -106 29 q-31 11 -74 24q-32 10 -77 17q-38 6 -76 3t-68 -21q-30 -19 -58 -47q-24 -24 -57 -64z" />
<glyph unicode="&#x2000;" horiz-adv-x="939" />
<glyph unicode="&#x2001;" horiz-adv-x="1878" />
<glyph unicode="&#x2002;" horiz-adv-x="939" />
<glyph unicode="&#x2003;" horiz-adv-x="1878" />
<glyph unicode="&#x2004;" horiz-adv-x="626" />
<glyph unicode="&#x2005;" horiz-adv-x="469" />
<glyph unicode="&#x2006;" horiz-adv-x="313" />
<glyph unicode="&#x2007;" horiz-adv-x="313" />
<glyph unicode="&#x2008;" horiz-adv-x="234" />
<glyph unicode="&#x2009;" horiz-adv-x="375" />
<glyph unicode="&#x200a;" horiz-adv-x="104" />
<glyph unicode="&#x2010;" horiz-adv-x="587" d="M41 674v74h506v-74h-506z" />
<glyph unicode="&#x2011;" horiz-adv-x="587" d="M41 674v74h506v-74h-506z" />
<glyph unicode="&#x2012;" horiz-adv-x="587" d="M41 674v74h506v-74h-506z" />
<glyph unicode="&#x2013;" horiz-adv-x="804" d="M41 528v72h723v-72h-723z" />
<glyph unicode="&#x2014;" horiz-adv-x="1228" d="M41 528v72h1147v-72h-1147z" />
<glyph unicode="&#x2018;" horiz-adv-x="411" d="M41 1171q0 74 25 141q23 63 68 115q42 49 105 87t132 55q-47 -18 -88 -56q-46 -43 -73 -81q-30 -43 -52 -98q-20 -51 -25 -101q62 21 109 2q45 -18 67 -55q23 -38 20 -84q-3 -47 -40 -84q-31 -30 -74 -38q-42 -7 -82 11q-37 17 -65 65q-27 46 -27 121z" />
<glyph unicode="&#x2019;" horiz-adv-x="411" d="M41 1569q69 -17 132 -55t105 -87q45 -52 68 -115q25 -67 25 -141q0 -75 -27 -121q-28 -48 -65 -65q-40 -18 -82 -11q-43 8 -74 38q-37 37 -40 84t19 84t68 55q47 19 109 -2q-5 50 -25 101q-22 55 -52 98q-28 40 -74 81q-43 38 -87 56z" />
<glyph unicode="&#x201a;" horiz-adv-x="411" d="M41 -336q46 18 87 55q44 40 74 82q30 43 52 98q20 51 25 101q-62 -21 -109 -2q-46 18 -68 55t-19 84t40 84q31 31 74 38q42 7 82 -11q37 -17 65 -65q27 -47 27 -122t-25 -141q-24 -64 -68 -115q-42 -49 -105 -87q-60 -36 -132 -54z" />
<glyph unicode="&#x201c;" horiz-adv-x="817" d="M41 1171q0 74 25 141q23 63 68 115q42 49 105 87t132 55q-47 -18 -88 -56q-46 -43 -73 -81q-30 -43 -52 -98q-20 -51 -25 -101q62 21 109 2q45 -18 67 -55q23 -38 20 -84q-3 -47 -40 -84q-31 -30 -74 -38q-42 -7 -82 11q-37 17 -65 65q-27 46 -27 121zM446 1171 q0 74 25 141q23 60 69 115q43 50 104 87q63 38 132 55q-47 -18 -88 -56q-46 -43 -73 -81q-30 -43 -52 -98q-19 -48 -24 -101q62 21 108 2q46 -18 68 -55t19 -84t-40 -84q-31 -31 -73 -38t-82 11q-39 18 -66 65q-27 46 -27 121z" />
<glyph unicode="&#x201d;" horiz-adv-x="817" d="M41 928q46 18 87 55q44 40 74 82q31 44 52 97q20 51 25 102q-62 -21 -109 -2q-46 18 -68 55t-19 84t40 84q31 31 74 38q41 7 82 -12q38 -18 65 -64q27 -47 27 -122t-25 -141q-24 -64 -68 -115q-42 -49 -105 -87q-60 -36 -132 -54zM446 928q48 19 88 55q42 37 73 82 q31 44 52 97q20 51 25 102q-62 -21 -109 -2q-45 18 -67 55q-23 38 -20 84q3 47 40 84q30 31 74 38q41 7 82 -12q39 -18 66 -64q26 -45 26 -122q0 -78 -24 -141q-23 -62 -69 -115q-43 -50 -104 -87q-59 -36 -133 -54z" />
<glyph unicode="&#x201e;" horiz-adv-x="788" d="M41 -336q46 18 87 55q44 40 74 82q30 43 52 98q20 51 25 101q-62 -21 -109 -2q-46 18 -68 55t-19 84t40 84q31 31 74 38q42 7 82 -11q37 -17 65 -65q27 -47 27 -122t-25 -141q-24 -64 -68 -115q-42 -49 -105 -87q-60 -36 -132 -54zM418 -336q46 18 87 55q44 40 74 82 q30 43 52 98q19 48 24 101q-62 -21 -108 -2q-46 18 -68 55t-19 84t40 84q31 31 73 38t82 -11q39 -18 66 -65t27 -122t-25 -141q-23 -62 -69 -115q-43 -50 -104 -87q-60 -36 -132 -54z" />
<glyph unicode="&#x2022;" horiz-adv-x="483" d="M41 627q0 84 58 142t143 58q84 0 142 -58t58 -142q0 -85 -58 -143t-142 -58q-85 0 -143 58t-58 143z" />
<glyph unicode="&#x2026;" horiz-adv-x="1232" d="M41 137q0 60 39 99q40 40 98 40q56 0 96 -40q41 -41 41 -99q0 -55 -41 -96t-96 -41q-57 0 -98 41q-39 39 -39 96zM479 137q0 60 39 99q40 40 98 40q57 0 97 -40q41 -41 41 -99q0 -55 -41 -96t-97 -41q-57 0 -98 41q-39 39 -39 96zM918 137q0 61 38 99q40 40 99 40 q56 0 96 -40q41 -41 41 -99q0 -55 -41 -96t-96 -41q-58 0 -99 41q-38 38 -38 96z" />
<glyph unicode="&#x202f;" horiz-adv-x="375" />
<glyph unicode="&#x2039;" horiz-adv-x="571" d="M41 307l136 179l98 132l75 100l64 83h116q-38 -48 -75 -100l-86 -117l-93 -126l-92 -126l207 -324h-174z" />
<glyph unicode="&#x203a;" horiz-adv-x="571" d="M41 801h117l63 -83l75 -100l98 -132l136 -179l-176 -299h-174l207 324l-92 126l-92 126l-87 117z" />
<glyph unicode="&#x205f;" horiz-adv-x="469" />
<glyph unicode="&#x20ac;" horiz-adv-x="727" d="M43 644q0 75 15 150q15 73 48 158q19 47 53 111q31 59 72 109q40 48 93 83q51 33 112 33q69 0 127 -41q59 -42 101 -100l-84 2q-28 56 -70 92q-33 27 -74 27q-49 0 -85 -38q-34 -35 -61 -91q-26 -53 -41 -111q-21 -78 -24 -96q-12 -50 -18 -98h323v-103h-333 q-1 -35 -3 -72q-1 -25 1 -71h335v-103h-327q7 -64 21 -131q13 -64 36 -125q9 -28 27 -69q16 -37 38 -68q21 -30 50 -50q28 -19 65 -19q43 0 76 33q36 36 57 71q11 18 13 24l12 25l88 -2q-47 -73 -109 -123q-63 -51 -141 -51q-58 0 -111 33q-54 34 -94 83q-41 50 -72 108 q-32 59 -53 112q-32 87 -47 158q-16 74 -16 150z" />
<glyph unicode="&#x2122;" horiz-adv-x="1232" d="M41 1356v135h494v-135q-7 41 -25 67t-43 37q-30 13 -61 16q-34 3 -80 3v-363q0 -50 12 -77q12 -26 65 -31h-233q52 4 64 31t12 77v363q-18 0 -70 -2q-36 -1 -63 -13q-34 -15 -48 -44q-17 -33 -22 -64h-2zM561 1008q53 5 65 31q11 25 11 75v270q0 50 -11 75q-12 27 -65 32 h162l156 -383l159 383h154q-33 -1 -51 -15q-19 -14 -23 -46q-2 -14 -2 -22v-24v-270q0 -19 2 -49q1 -21 19 -37q20 -20 55 -20h-234q54 5 66 31q12 27 12 75v328l-186 -434h-14l-183 426v-320q0 -48 12 -75t64 -31h-168z" />
<glyph unicode="&#x25fc;" horiz-adv-x="962" d="M0 0v963h963v-963h-963z" />
<glyph unicode="&#xfb01;" horiz-adv-x="1077" d="M41 0q57 6 89 20q34 15 50 49q18 37 22 92q5 65 5 152v604h-164v41h164v179q0 93 23 151q24 59 94 111q58 44 146 68q87 24 169 24q83 0 143 -27t60 -86q0 -37 -25 -59q-24 -21 -53 -21q-41 0 -63 25q-18 20 -38 54q-20 33 -39 55q-21 24 -63 24q-61 0 -98 -21t-55 -68 q-19 -50 -25 -119q-6 -72 -6 -177v-46q0 -19 1 -25t1 -17v-25h495l3 -741q0 -53 4 -86q4 -37 19 -62t48 -42t88 -27h-497q33 5 67 14q28 8 47 26q18 18 30 46q10 24 15 74q2 18 3 70q1 35 1 119q0 92 -1 143t-1 142q0 84 -1 117t-1 68q0 41 -6 62q-6 20 -37 28q-36 9 -95 9 h-181v-699q0 -47 5 -87q4 -34 20 -62q14 -25 48 -43q32 -17 87 -27h-498z" />
<glyph unicode="&#xfb02;" horiz-adv-x="1378" d="M41 0q57 6 89 20q34 15 50 49q18 37 22 92q5 65 5 152v508h-164v41h164v275q0 93 23 151q24 59 94 111q58 44 146 68q87 24 169 24q83 0 143 -27t60 -86q0 -37 -25 -59q-24 -21 -53 -21q-41 0 -63 25q-18 20 -38 54q-20 33 -39 55q-21 24 -63 24q-61 0 -98 -21t-55 -68 q-19 -50 -25 -119q-6 -72 -6 -177q0 -80 1 -118t1 -91h223v-41h-223v-602q0 -47 5 -87q4 -34 20 -62q14 -26 49 -43q33 -17 88 -27h-500zM838 0v2q36 5 69 14q28 7 47 26q18 18 30 46q10 24 15 74q5 30 5 63v86v885v84q0 36 -7 82q-6 42 -22 70q-17 30 -47 47q-17 8 -34 11 q-25 4 -44 5v2h326v-1278q0 -47 5 -87q4 -34 20 -61q15 -25 48 -42t88 -27v-2h-499z" />
</font>
</defs>
</svg>
